%TF.GenerationSoftware,KiCad,Pcbnew,7.0.5*%
%TF.CreationDate,2024-03-13T05:49:51+05:30*%
%TF.ProjectId,standalone_arduino,7374616e-6461-46c6-9f6e-655f61726475,rev?*%
%TF.SameCoordinates,Original*%
%TF.FileFunction,Copper,L1,Top*%
%TF.FilePolarity,Positive*%
%FSLAX46Y46*%
G04 Gerber Fmt 4.6, Leading zero omitted, Abs format (unit mm)*
G04 Created by KiCad (PCBNEW 7.0.5) date 2024-03-13 05:49:51*
%MOMM*%
%LPD*%
G01*
G04 APERTURE LIST*
%TA.AperFunction,ComponentPad*%
%ADD10O,1.700000X1.700000*%
%TD*%
%TA.AperFunction,ComponentPad*%
%ADD11R,1.700000X1.700000*%
%TD*%
%TA.AperFunction,ComponentPad*%
%ADD12C,1.600000*%
%TD*%
%TA.AperFunction,ComponentPad*%
%ADD13R,1.358000X1.358000*%
%TD*%
%TA.AperFunction,ComponentPad*%
%ADD14C,1.358000*%
%TD*%
%TA.AperFunction,ComponentPad*%
%ADD15O,1.600000X1.600000*%
%TD*%
%TA.AperFunction,ComponentPad*%
%ADD16C,1.000000*%
%TD*%
%TA.AperFunction,ComponentPad*%
%ADD17C,2.000000*%
%TD*%
%TA.AperFunction,Conductor*%
%ADD18C,0.250000*%
%TD*%
G04 APERTURE END LIST*
D10*
%TO.P,Program1,5*%
%TO.N,+5V*%
X160050000Y-71100000D03*
%TO.P,Program1,4*%
%TO.N,GND*%
X160050000Y-68560000D03*
%TO.P,Program1,3*%
%TO.N,/RXD*%
X160050000Y-66020000D03*
%TO.P,Program1,2*%
%TO.N,/TXD*%
X160050000Y-63480000D03*
D11*
%TO.P,Program1,1*%
%TO.N,/RST*%
X160050000Y-60940000D03*
%TD*%
D12*
%TO.P,C1,1*%
%TO.N,GND*%
X175970000Y-66040000D03*
%TO.P,C1,2*%
%TO.N,/XTAL1*%
X178470000Y-66040000D03*
%TD*%
D11*
%TO.P,J1,1*%
%TO.N,/RST*%
X160430000Y-76200000D03*
D10*
%TO.P,J1,2*%
%TO.N,/RXD*%
X160430000Y-78740000D03*
%TO.P,J1,3*%
%TO.N,/TXD*%
X160430000Y-81280000D03*
%TO.P,J1,4*%
%TO.N,/D02*%
X160430000Y-83820000D03*
%TO.P,J1,5*%
%TO.N,/D03*%
X160430000Y-86360000D03*
%TO.P,J1,6*%
%TO.N,/D04*%
X160430000Y-88900000D03*
%TO.P,J1,7*%
%TO.N,+5V*%
X160430000Y-91440000D03*
%TO.P,J1,8*%
%TO.N,GND*%
X160430000Y-93980000D03*
%TO.P,J1,9*%
%TO.N,/XTAL1*%
X160430000Y-96520000D03*
%TO.P,J1,10*%
%TO.N,/XTAL2*%
X160430000Y-99060000D03*
%TO.P,J1,11*%
%TO.N,/D05*%
X160430000Y-101600000D03*
%TO.P,J1,12*%
%TO.N,/D06*%
X160430000Y-104140000D03*
%TO.P,J1,13*%
%TO.N,/D07*%
X160430000Y-106680000D03*
%TO.P,J1,14*%
%TO.N,/D08*%
X160430000Y-109220000D03*
%TD*%
D12*
%TO.P,C2,1*%
%TO.N,GND*%
X175970000Y-71120000D03*
%TO.P,C2,2*%
%TO.N,/XTAL2*%
X178470000Y-71120000D03*
%TD*%
D13*
%TO.P,U1,1,PC6/~{RESET}*%
%TO.N,/RST*%
X165510000Y-76200000D03*
D14*
%TO.P,U1,2,PD0*%
%TO.N,/RXD*%
X165510000Y-78740000D03*
%TO.P,U1,3,PD1*%
%TO.N,/TXD*%
X165510000Y-81280000D03*
%TO.P,U1,4,PD2*%
%TO.N,/D02*%
X165510000Y-83820000D03*
%TO.P,U1,5,PD3*%
%TO.N,/D03*%
X165510000Y-86360000D03*
%TO.P,U1,6,PD4*%
%TO.N,/D04*%
X165510000Y-88900000D03*
%TO.P,U1,7,VCC*%
%TO.N,+5V*%
X165510000Y-91440000D03*
%TO.P,U1,8,GND*%
%TO.N,GND*%
X165510000Y-93980000D03*
%TO.P,U1,9,PB6*%
%TO.N,/XTAL1*%
X165510000Y-96520000D03*
%TO.P,U1,10,PB7*%
%TO.N,/XTAL2*%
X165510000Y-99060000D03*
%TO.P,U1,11,PD5*%
%TO.N,/D05*%
X165510000Y-101600000D03*
%TO.P,U1,12,PD6*%
%TO.N,/D06*%
X165510000Y-104140000D03*
%TO.P,U1,13,PD7*%
%TO.N,/D07*%
X165510000Y-106680000D03*
%TO.P,U1,14,PB0*%
%TO.N,/D08*%
X165510000Y-109220000D03*
%TO.P,U1,15,PB1*%
%TO.N,/D09*%
X173430000Y-109220000D03*
%TO.P,U1,16,PB2*%
%TO.N,/D10*%
X173430000Y-106680000D03*
%TO.P,U1,17,PB3*%
%TO.N,/D11*%
X173430000Y-104140000D03*
%TO.P,U1,18,PB4*%
%TO.N,/D12*%
X173430000Y-101600000D03*
%TO.P,U1,19,PB5*%
%TO.N,/D13*%
X173430000Y-99060000D03*
%TO.P,U1,20,AVCC*%
%TO.N,+5V*%
X173430000Y-96520000D03*
%TO.P,U1,21,AREF*%
%TO.N,/AREF*%
X173430000Y-93980000D03*
%TO.P,U1,22,GND*%
%TO.N,GND*%
X173430000Y-91440000D03*
%TO.P,U1,23,PC0*%
%TO.N,/ADC0*%
X173430000Y-88900000D03*
%TO.P,U1,24,PC1*%
%TO.N,/ADC1*%
X173430000Y-86360000D03*
%TO.P,U1,25,PC2*%
%TO.N,/ADC2*%
X173430000Y-83820000D03*
%TO.P,U1,26,PC3*%
%TO.N,/ADC3*%
X173430000Y-81280000D03*
%TO.P,U1,27,PC4*%
%TO.N,/ADC4*%
X173430000Y-78740000D03*
%TO.P,U1,28,PC5*%
%TO.N,/ADC5*%
X173430000Y-76200000D03*
%TD*%
D12*
%TO.P,R1,1*%
%TO.N,+5V*%
X165810000Y-60960000D03*
D15*
%TO.P,R1,2*%
%TO.N,/RST*%
X175970000Y-60960000D03*
%TD*%
D16*
%TO.P,Y1,1,1*%
%TO.N,/XTAL2*%
X179150000Y-60960000D03*
%TO.P,Y1,2,2*%
%TO.N,/XTAL1*%
X181050000Y-60960000D03*
%TD*%
D11*
%TO.P,J2,1*%
%TO.N,/ADC5*%
X178210000Y-76200000D03*
D10*
%TO.P,J2,2*%
%TO.N,/ADC4*%
X178210000Y-78740000D03*
%TO.P,J2,3*%
%TO.N,/ADC3*%
X178210000Y-81280000D03*
%TO.P,J2,4*%
%TO.N,/ADC2*%
X178210000Y-83820000D03*
%TO.P,J2,5*%
%TO.N,/ADC1*%
X178210000Y-86360000D03*
%TO.P,J2,6*%
%TO.N,/ADC0*%
X178210000Y-88900000D03*
%TO.P,J2,7*%
%TO.N,GND*%
X178210000Y-91440000D03*
%TO.P,J2,8*%
%TO.N,/AREF*%
X178210000Y-93980000D03*
%TO.P,J2,9*%
%TO.N,+5V*%
X178210000Y-96520000D03*
%TO.P,J2,10*%
%TO.N,/D13*%
X178210000Y-99060000D03*
%TO.P,J2,11*%
%TO.N,/D12*%
X178210000Y-101600000D03*
%TO.P,J2,12*%
%TO.N,/D11*%
X178210000Y-104140000D03*
%TO.P,J2,13*%
%TO.N,/D10*%
X178210000Y-106680000D03*
%TO.P,J2,14*%
%TO.N,/D09*%
X178210000Y-109220000D03*
%TD*%
D17*
%TO.P,SW1,1*%
%TO.N,/RST*%
X165100000Y-66330000D03*
X171600000Y-66330000D03*
%TO.P,SW1,2*%
%TO.N,GND*%
X165100000Y-70830000D03*
X171600000Y-70830000D03*
%TD*%
D18*
%TO.N,/D12*%
X173430000Y-101600000D02*
X178210000Y-101600000D01*
%TO.N,GND*%
X178210000Y-91440000D02*
X173430000Y-91440000D01*
%TO.N,+5V*%
X159563299Y-64845000D02*
X156679150Y-67729150D01*
X161925000Y-64845000D02*
X159563299Y-64845000D01*
X165810000Y-60960000D02*
X161925000Y-64845000D01*
X156679150Y-67729150D02*
X160050000Y-71100000D01*
%TO.N,GND*%
X162830000Y-68560000D02*
X165100000Y-70830000D01*
X160050000Y-68560000D02*
X162830000Y-68560000D01*
%TO.N,+5V*%
X163270000Y-88600000D02*
X163270000Y-74320000D01*
X163270000Y-74320000D02*
X160050000Y-71100000D01*
X160430000Y-91440000D02*
X163270000Y-88600000D01*
%TO.N,GND*%
X181050000Y-94280000D02*
X178210000Y-91440000D01*
X181050000Y-97885000D02*
X181050000Y-94280000D01*
X169415000Y-97885000D02*
X181050000Y-97885000D01*
X165510000Y-93980000D02*
X169415000Y-97885000D01*
X181050000Y-88600000D02*
X178210000Y-91440000D01*
X181050000Y-76200000D02*
X181050000Y-88600000D01*
X175970000Y-71120000D02*
X181050000Y-76200000D01*
X160430000Y-93980000D02*
X165510000Y-93980000D01*
%TO.N,+5V*%
X160430000Y-91440000D02*
X165510000Y-91440000D01*
X165810000Y-91440000D02*
X165510000Y-91440000D01*
X170890000Y-96520000D02*
X165810000Y-91440000D01*
X173430000Y-96520000D02*
X170890000Y-96520000D01*
X178210000Y-96520000D02*
X173430000Y-96520000D01*
%TO.N,/AREF*%
X178210000Y-93980000D02*
X173430000Y-93980000D01*
%TO.N,GND*%
X175970000Y-71120000D02*
X175970000Y-66040000D01*
X175680000Y-70830000D02*
X175970000Y-71120000D01*
X171600000Y-70830000D02*
X175680000Y-70830000D01*
X165100000Y-70830000D02*
X171600000Y-70830000D01*
%TD*%
%TA.AperFunction,Conductor*%
%TO.N,GND*%
G36*
X177001812Y-97165185D02*
G01*
X177036348Y-97198377D01*
X177171501Y-97391396D01*
X177171506Y-97391402D01*
X177338597Y-97558493D01*
X177338603Y-97558498D01*
X177524158Y-97688425D01*
X177567783Y-97743002D01*
X177574977Y-97812500D01*
X177543454Y-97874855D01*
X177524158Y-97891575D01*
X177338597Y-98021505D01*
X177171505Y-98188597D01*
X177035965Y-98382169D01*
X177035964Y-98382171D01*
X176936098Y-98596335D01*
X176936094Y-98596344D01*
X176874938Y-98824586D01*
X176874936Y-98824596D01*
X176854341Y-99059999D01*
X176854341Y-99060000D01*
X176874936Y-99295403D01*
X176874938Y-99295413D01*
X176936094Y-99523655D01*
X176936096Y-99523659D01*
X176936097Y-99523663D01*
X177010668Y-99683581D01*
X177035965Y-99737830D01*
X177035967Y-99737834D01*
X177171501Y-99931395D01*
X177171506Y-99931402D01*
X177338597Y-100098493D01*
X177338603Y-100098498D01*
X177524158Y-100228425D01*
X177567783Y-100283002D01*
X177574977Y-100352500D01*
X177543454Y-100414855D01*
X177524158Y-100431575D01*
X177338597Y-100561505D01*
X177171505Y-100728597D01*
X177036348Y-100921623D01*
X176981771Y-100965248D01*
X176934773Y-100974500D01*
X174497427Y-100974500D01*
X174430388Y-100954815D01*
X174398473Y-100925227D01*
X174305395Y-100801972D01*
X174224907Y-100728597D01*
X174143853Y-100654706D01*
X174143850Y-100654704D01*
X174143849Y-100654703D01*
X173958004Y-100539633D01*
X173957998Y-100539630D01*
X173797351Y-100477396D01*
X173754168Y-100460667D01*
X173707204Y-100451887D01*
X173644926Y-100420221D01*
X173609653Y-100359908D01*
X173612587Y-100290100D01*
X173652796Y-100232960D01*
X173707204Y-100208112D01*
X173754168Y-100199333D01*
X173958001Y-100120368D01*
X174143853Y-100005294D01*
X174305395Y-99858028D01*
X174437127Y-99683587D01*
X174534563Y-99487910D01*
X174594384Y-99277661D01*
X174614553Y-99060000D01*
X174594384Y-98842339D01*
X174534563Y-98632090D01*
X174516764Y-98596344D01*
X174437130Y-98436418D01*
X174437125Y-98436410D01*
X174305395Y-98261972D01*
X174224907Y-98188597D01*
X174143853Y-98114706D01*
X174143850Y-98114704D01*
X174143849Y-98114703D01*
X173958004Y-97999633D01*
X173957998Y-97999630D01*
X173797351Y-97937396D01*
X173754168Y-97920667D01*
X173707204Y-97911887D01*
X173644926Y-97880221D01*
X173609653Y-97819908D01*
X173612587Y-97750100D01*
X173652796Y-97692960D01*
X173707204Y-97668112D01*
X173754168Y-97659333D01*
X173958001Y-97580368D01*
X174143853Y-97465294D01*
X174305395Y-97318028D01*
X174398472Y-97194773D01*
X174454582Y-97153137D01*
X174497427Y-97145500D01*
X176934773Y-97145500D01*
X177001812Y-97165185D01*
G37*
%TD.AperFunction*%
%TA.AperFunction,Conductor*%
G36*
X158792425Y-66602977D02*
G01*
X158848358Y-66644849D01*
X158861472Y-66666752D01*
X158875963Y-66697828D01*
X158875965Y-66697831D01*
X158923328Y-66765472D01*
X159011505Y-66891401D01*
X159178599Y-67058495D01*
X159338034Y-67170133D01*
X159364594Y-67188730D01*
X159408219Y-67243307D01*
X159415413Y-67312805D01*
X159383890Y-67375160D01*
X159364595Y-67391880D01*
X159178922Y-67521890D01*
X159178920Y-67521891D01*
X159011891Y-67688920D01*
X159011886Y-67688926D01*
X158876400Y-67882420D01*
X158876399Y-67882422D01*
X158776570Y-68096507D01*
X158776567Y-68096513D01*
X158719364Y-68309999D01*
X158719364Y-68310000D01*
X159616314Y-68310000D01*
X159590507Y-68350156D01*
X159550000Y-68488111D01*
X159550000Y-68631889D01*
X159590507Y-68769844D01*
X159616314Y-68810000D01*
X158695953Y-68810000D01*
X158628914Y-68790315D01*
X158608272Y-68773681D01*
X157651421Y-67816830D01*
X157617936Y-67755507D01*
X157622920Y-67685815D01*
X157651421Y-67641468D01*
X158122758Y-67170131D01*
X158661412Y-66631476D01*
X158722733Y-66597993D01*
X158792425Y-66602977D01*
G37*
%TD.AperFunction*%
%TA.AperFunction,Conductor*%
G36*
X185112539Y-56150185D02*
G01*
X185158294Y-56202989D01*
X185169500Y-56254500D01*
X185169500Y-113925500D01*
X185149815Y-113992539D01*
X185097011Y-114038294D01*
X185045500Y-114049500D01*
X152774500Y-114049500D01*
X152707461Y-114029815D01*
X152661706Y-113977011D01*
X152650500Y-113925500D01*
X152650500Y-67709348D01*
X156048990Y-67709348D01*
X156054392Y-67766502D01*
X156054637Y-67770389D01*
X156056440Y-67827777D01*
X156058720Y-67835622D01*
X156063093Y-67858542D01*
X156063862Y-67866681D01*
X156083311Y-67920703D01*
X156084514Y-67924407D01*
X156100531Y-67979539D01*
X156100532Y-67979542D01*
X156104693Y-67986578D01*
X156114627Y-68007687D01*
X156117396Y-68015377D01*
X156117397Y-68015380D01*
X156149663Y-68062858D01*
X156151750Y-68066146D01*
X156180976Y-68115564D01*
X156180980Y-68115570D01*
X156180983Y-68115573D01*
X156186752Y-68121342D01*
X156201626Y-68139320D01*
X156206226Y-68146088D01*
X156206232Y-68146093D01*
X156249296Y-68184059D01*
X156252120Y-68186710D01*
X157496492Y-69431082D01*
X158709762Y-70644352D01*
X158743247Y-70705675D01*
X158741856Y-70764126D01*
X158714938Y-70864586D01*
X158714936Y-70864596D01*
X158694341Y-71099999D01*
X158694341Y-71100000D01*
X158714936Y-71335403D01*
X158714938Y-71335413D01*
X158776094Y-71563655D01*
X158776096Y-71563659D01*
X158776097Y-71563663D01*
X158839617Y-71699882D01*
X158875965Y-71777830D01*
X158875967Y-71777834D01*
X158923328Y-71845472D01*
X159011505Y-71971401D01*
X159178599Y-72138495D01*
X159265045Y-72199025D01*
X159372165Y-72274032D01*
X159372167Y-72274033D01*
X159372170Y-72274035D01*
X159586337Y-72373903D01*
X159814592Y-72435063D01*
X160002918Y-72451539D01*
X160049999Y-72455659D01*
X160050000Y-72455659D01*
X160050001Y-72455659D01*
X160089234Y-72452226D01*
X160285408Y-72435063D01*
X160385873Y-72408143D01*
X160455722Y-72409806D01*
X160505647Y-72440237D01*
X162608181Y-74542771D01*
X162641666Y-74604094D01*
X162644500Y-74630452D01*
X162644500Y-88289546D01*
X162624815Y-88356585D01*
X162608181Y-88377227D01*
X161997340Y-88988068D01*
X161936017Y-89021553D01*
X161866325Y-89016569D01*
X161810392Y-88974697D01*
X161785975Y-88909233D01*
X161785659Y-88900387D01*
X161785659Y-88899999D01*
X161774801Y-88775893D01*
X161765063Y-88664592D01*
X161703903Y-88436337D01*
X161604035Y-88222171D01*
X161519872Y-88101972D01*
X161468494Y-88028597D01*
X161301402Y-87861506D01*
X161301401Y-87861505D01*
X161157390Y-87760667D01*
X161115841Y-87731574D01*
X161072216Y-87676997D01*
X161065024Y-87607498D01*
X161096546Y-87545144D01*
X161115836Y-87528428D01*
X161301401Y-87398495D01*
X161468495Y-87231401D01*
X161604035Y-87037830D01*
X161703903Y-86823663D01*
X161765063Y-86595408D01*
X161785659Y-86360000D01*
X161765063Y-86124592D01*
X161703903Y-85896337D01*
X161604035Y-85682171D01*
X161519872Y-85561972D01*
X161468494Y-85488597D01*
X161301402Y-85321506D01*
X161301396Y-85321501D01*
X161115842Y-85191575D01*
X161072217Y-85136998D01*
X161065023Y-85067500D01*
X161096546Y-85005145D01*
X161115842Y-84988425D01*
X161144853Y-84968111D01*
X161301401Y-84858495D01*
X161468495Y-84691401D01*
X161604035Y-84497830D01*
X161703903Y-84283663D01*
X161765063Y-84055408D01*
X161785659Y-83820000D01*
X161765063Y-83584592D01*
X161703903Y-83356337D01*
X161604035Y-83142171D01*
X161519872Y-83021972D01*
X161468494Y-82948597D01*
X161301402Y-82781506D01*
X161301401Y-82781505D01*
X161157390Y-82680667D01*
X161115841Y-82651574D01*
X161072216Y-82596997D01*
X161065024Y-82527498D01*
X161096546Y-82465144D01*
X161115836Y-82448428D01*
X161301401Y-82318495D01*
X161468495Y-82151401D01*
X161604035Y-81957830D01*
X161703903Y-81743663D01*
X161765063Y-81515408D01*
X161785659Y-81280000D01*
X161765063Y-81044592D01*
X161703903Y-80816337D01*
X161604035Y-80602171D01*
X161519872Y-80481972D01*
X161468494Y-80408597D01*
X161301402Y-80241506D01*
X161301396Y-80241501D01*
X161115842Y-80111575D01*
X161072217Y-80056998D01*
X161065023Y-79987500D01*
X161096546Y-79925145D01*
X161115842Y-79908425D01*
X161144853Y-79888111D01*
X161301401Y-79778495D01*
X161468495Y-79611401D01*
X161604035Y-79417830D01*
X161703903Y-79203663D01*
X161765063Y-78975408D01*
X161785659Y-78740000D01*
X161765063Y-78504592D01*
X161703903Y-78276337D01*
X161604035Y-78062171D01*
X161468495Y-77868599D01*
X161346567Y-77746671D01*
X161313084Y-77685351D01*
X161318068Y-77615659D01*
X161359939Y-77559725D01*
X161390915Y-77542810D01*
X161522331Y-77493796D01*
X161637546Y-77407546D01*
X161723796Y-77292331D01*
X161774091Y-77157483D01*
X161780500Y-77097873D01*
X161780499Y-75302128D01*
X161774091Y-75242517D01*
X161744602Y-75163454D01*
X161723797Y-75107671D01*
X161723793Y-75107664D01*
X161637547Y-74992455D01*
X161637544Y-74992452D01*
X161522335Y-74906206D01*
X161522328Y-74906202D01*
X161387482Y-74855908D01*
X161387483Y-74855908D01*
X161327883Y-74849501D01*
X161327881Y-74849500D01*
X161327873Y-74849500D01*
X161327864Y-74849500D01*
X159532129Y-74849500D01*
X159532123Y-74849501D01*
X159472516Y-74855908D01*
X159337671Y-74906202D01*
X159337664Y-74906206D01*
X159222455Y-74992452D01*
X159222452Y-74992455D01*
X159136206Y-75107664D01*
X159136202Y-75107671D01*
X159085908Y-75242517D01*
X159079501Y-75302116D01*
X159079501Y-75302123D01*
X159079500Y-75302135D01*
X159079500Y-77097870D01*
X159079501Y-77097876D01*
X159085908Y-77157483D01*
X159136202Y-77292328D01*
X159136206Y-77292335D01*
X159222452Y-77407544D01*
X159222455Y-77407547D01*
X159337664Y-77493793D01*
X159337671Y-77493797D01*
X159469081Y-77542810D01*
X159525015Y-77584681D01*
X159549432Y-77650145D01*
X159534580Y-77718418D01*
X159513430Y-77746673D01*
X159391503Y-77868600D01*
X159255965Y-78062169D01*
X159255964Y-78062171D01*
X159156098Y-78276335D01*
X159156094Y-78276344D01*
X159094938Y-78504586D01*
X159094936Y-78504596D01*
X159074341Y-78739999D01*
X159074341Y-78740000D01*
X159094936Y-78975403D01*
X159094938Y-78975413D01*
X159156094Y-79203655D01*
X159156096Y-79203659D01*
X159156097Y-79203663D01*
X159230668Y-79363581D01*
X159255965Y-79417830D01*
X159255967Y-79417834D01*
X159391501Y-79611395D01*
X159391506Y-79611402D01*
X159558597Y-79778493D01*
X159558603Y-79778498D01*
X159744158Y-79908425D01*
X159787783Y-79963002D01*
X159794977Y-80032500D01*
X159763454Y-80094855D01*
X159744158Y-80111575D01*
X159558597Y-80241505D01*
X159391505Y-80408597D01*
X159255965Y-80602169D01*
X159255964Y-80602171D01*
X159156098Y-80816335D01*
X159156094Y-80816344D01*
X159094938Y-81044586D01*
X159094936Y-81044596D01*
X159074341Y-81279999D01*
X159074341Y-81280000D01*
X159094936Y-81515403D01*
X159094938Y-81515413D01*
X159156094Y-81743655D01*
X159156096Y-81743659D01*
X159156097Y-81743663D01*
X159230668Y-81903581D01*
X159255965Y-81957830D01*
X159255967Y-81957834D01*
X159391501Y-82151395D01*
X159391506Y-82151402D01*
X159558597Y-82318493D01*
X159558603Y-82318498D01*
X159744158Y-82448425D01*
X159787783Y-82503002D01*
X159794977Y-82572500D01*
X159763454Y-82634855D01*
X159744158Y-82651575D01*
X159558597Y-82781505D01*
X159391505Y-82948597D01*
X159255965Y-83142169D01*
X159255964Y-83142171D01*
X159156098Y-83356335D01*
X159156094Y-83356344D01*
X159094938Y-83584586D01*
X159094936Y-83584596D01*
X159074341Y-83819999D01*
X159074341Y-83820000D01*
X159094936Y-84055403D01*
X159094938Y-84055413D01*
X159156094Y-84283655D01*
X159156096Y-84283659D01*
X159156097Y-84283663D01*
X159230668Y-84443581D01*
X159255965Y-84497830D01*
X159255967Y-84497834D01*
X159391501Y-84691395D01*
X159391506Y-84691402D01*
X159558597Y-84858493D01*
X159558603Y-84858498D01*
X159744158Y-84988425D01*
X159787783Y-85043002D01*
X159794977Y-85112500D01*
X159763454Y-85174855D01*
X159744158Y-85191575D01*
X159558597Y-85321505D01*
X159391505Y-85488597D01*
X159255965Y-85682169D01*
X159255964Y-85682171D01*
X159156098Y-85896335D01*
X159156094Y-85896344D01*
X159094938Y-86124586D01*
X159094936Y-86124596D01*
X159074341Y-86359999D01*
X159074341Y-86360000D01*
X159094936Y-86595403D01*
X159094938Y-86595413D01*
X159156094Y-86823655D01*
X159156096Y-86823659D01*
X159156097Y-86823663D01*
X159230668Y-86983581D01*
X159255965Y-87037830D01*
X159255967Y-87037834D01*
X159391501Y-87231395D01*
X159391506Y-87231402D01*
X159558597Y-87398493D01*
X159558603Y-87398498D01*
X159744158Y-87528425D01*
X159787783Y-87583002D01*
X159794977Y-87652500D01*
X159763454Y-87714855D01*
X159744158Y-87731575D01*
X159558597Y-87861505D01*
X159391505Y-88028597D01*
X159255965Y-88222169D01*
X159255964Y-88222171D01*
X159156098Y-88436335D01*
X159156094Y-88436344D01*
X159094938Y-88664586D01*
X159094936Y-88664596D01*
X159074341Y-88899999D01*
X159074341Y-88900000D01*
X159094936Y-89135403D01*
X159094938Y-89135413D01*
X159156094Y-89363655D01*
X159156096Y-89363659D01*
X159156097Y-89363663D01*
X159230668Y-89523581D01*
X159255965Y-89577830D01*
X159255967Y-89577834D01*
X159391501Y-89771395D01*
X159391506Y-89771402D01*
X159558597Y-89938493D01*
X159558603Y-89938498D01*
X159744158Y-90068425D01*
X159787783Y-90123002D01*
X159794977Y-90192500D01*
X159763454Y-90254855D01*
X159744158Y-90271575D01*
X159558597Y-90401505D01*
X159391505Y-90568597D01*
X159255965Y-90762169D01*
X159255964Y-90762171D01*
X159156098Y-90976335D01*
X159156094Y-90976344D01*
X159094938Y-91204586D01*
X159094936Y-91204596D01*
X159074341Y-91439999D01*
X159074341Y-91440000D01*
X159094936Y-91675403D01*
X159094938Y-91675413D01*
X159156094Y-91903655D01*
X159156096Y-91903659D01*
X159156097Y-91903663D01*
X159255847Y-92117578D01*
X159255965Y-92117830D01*
X159255967Y-92117834D01*
X159364281Y-92272521D01*
X159391505Y-92311401D01*
X159558599Y-92478495D01*
X159702610Y-92579333D01*
X159744594Y-92608730D01*
X159788219Y-92663307D01*
X159795413Y-92732805D01*
X159763890Y-92795160D01*
X159744595Y-92811880D01*
X159558922Y-92941890D01*
X159558920Y-92941891D01*
X159391891Y-93108920D01*
X159391886Y-93108926D01*
X159256400Y-93302420D01*
X159256399Y-93302422D01*
X159156570Y-93516507D01*
X159156567Y-93516513D01*
X159099364Y-93729999D01*
X159099364Y-93730000D01*
X159996314Y-93730000D01*
X159970507Y-93770156D01*
X159930000Y-93908111D01*
X159930000Y-94051889D01*
X159970507Y-94189844D01*
X159996314Y-94230000D01*
X159099364Y-94230000D01*
X159156567Y-94443486D01*
X159156570Y-94443492D01*
X159256399Y-94657578D01*
X159391894Y-94851082D01*
X159558917Y-95018105D01*
X159744595Y-95148119D01*
X159788219Y-95202696D01*
X159795412Y-95272195D01*
X159763890Y-95334549D01*
X159744595Y-95351269D01*
X159558594Y-95481508D01*
X159391505Y-95648597D01*
X159255965Y-95842169D01*
X159255964Y-95842171D01*
X159156098Y-96056335D01*
X159156094Y-96056344D01*
X159094938Y-96284586D01*
X159094936Y-96284596D01*
X159074341Y-96519999D01*
X159074341Y-96520000D01*
X159094936Y-96755403D01*
X159094938Y-96755413D01*
X159156094Y-96983655D01*
X159156096Y-96983659D01*
X159156097Y-96983663D01*
X159255964Y-97197830D01*
X159255965Y-97197830D01*
X159255967Y-97197834D01*
X159364281Y-97352521D01*
X159391501Y-97391396D01*
X159391506Y-97391402D01*
X159558597Y-97558493D01*
X159558603Y-97558498D01*
X159744158Y-97688425D01*
X159787783Y-97743002D01*
X159794977Y-97812500D01*
X159763454Y-97874855D01*
X159744158Y-97891575D01*
X159558597Y-98021505D01*
X159391505Y-98188597D01*
X159255965Y-98382169D01*
X159255964Y-98382171D01*
X159156098Y-98596335D01*
X159156094Y-98596344D01*
X159094938Y-98824586D01*
X159094936Y-98824596D01*
X159074341Y-99059999D01*
X159074341Y-99060000D01*
X159094936Y-99295403D01*
X159094938Y-99295413D01*
X159156094Y-99523655D01*
X159156096Y-99523659D01*
X159156097Y-99523663D01*
X159230668Y-99683581D01*
X159255965Y-99737830D01*
X159255967Y-99737834D01*
X159391501Y-99931395D01*
X159391506Y-99931402D01*
X159558597Y-100098493D01*
X159558603Y-100098498D01*
X159744158Y-100228425D01*
X159787783Y-100283002D01*
X159794977Y-100352500D01*
X159763454Y-100414855D01*
X159744158Y-100431575D01*
X159558597Y-100561505D01*
X159391505Y-100728597D01*
X159255965Y-100922169D01*
X159255964Y-100922171D01*
X159156098Y-101136335D01*
X159156094Y-101136344D01*
X159094938Y-101364586D01*
X159094936Y-101364596D01*
X159074341Y-101599999D01*
X159074341Y-101600000D01*
X159094936Y-101835403D01*
X159094938Y-101835413D01*
X159156094Y-102063655D01*
X159156096Y-102063659D01*
X159156097Y-102063663D01*
X159255965Y-102277829D01*
X159255965Y-102277830D01*
X159255967Y-102277834D01*
X159364281Y-102432521D01*
X159391501Y-102471396D01*
X159391506Y-102471402D01*
X159558597Y-102638493D01*
X159558603Y-102638498D01*
X159744158Y-102768425D01*
X159787783Y-102823002D01*
X159794977Y-102892500D01*
X159763454Y-102954855D01*
X159744158Y-102971575D01*
X159558597Y-103101505D01*
X159391505Y-103268597D01*
X159255965Y-103462169D01*
X159255964Y-103462171D01*
X159156098Y-103676335D01*
X159156094Y-103676344D01*
X159094938Y-103904586D01*
X159094936Y-103904596D01*
X159074341Y-104139999D01*
X159074341Y-104140000D01*
X159094936Y-104375403D01*
X159094938Y-104375413D01*
X159156094Y-104603655D01*
X159156096Y-104603659D01*
X159156097Y-104603663D01*
X159230668Y-104763581D01*
X159255965Y-104817830D01*
X159255967Y-104817834D01*
X159391501Y-105011395D01*
X159391506Y-105011402D01*
X159558597Y-105178493D01*
X159558603Y-105178498D01*
X159744158Y-105308425D01*
X159787783Y-105363002D01*
X159794977Y-105432500D01*
X159763454Y-105494855D01*
X159744158Y-105511575D01*
X159558597Y-105641505D01*
X159391505Y-105808597D01*
X159255965Y-106002169D01*
X159255964Y-106002171D01*
X159156098Y-106216335D01*
X159156094Y-106216344D01*
X159094938Y-106444586D01*
X159094936Y-106444596D01*
X159074341Y-106679999D01*
X159074341Y-106680000D01*
X159094936Y-106915403D01*
X159094938Y-106915413D01*
X159156094Y-107143655D01*
X159156096Y-107143659D01*
X159156097Y-107143663D01*
X159230668Y-107303581D01*
X159255965Y-107357830D01*
X159255967Y-107357834D01*
X159391501Y-107551395D01*
X159391506Y-107551402D01*
X159558597Y-107718493D01*
X159558603Y-107718498D01*
X159744158Y-107848425D01*
X159787783Y-107903002D01*
X159794977Y-107972500D01*
X159763454Y-108034855D01*
X159744158Y-108051575D01*
X159558597Y-108181505D01*
X159391505Y-108348597D01*
X159255965Y-108542169D01*
X159255964Y-108542171D01*
X159156098Y-108756335D01*
X159156094Y-108756344D01*
X159094938Y-108984586D01*
X159094936Y-108984596D01*
X159074341Y-109219999D01*
X159074341Y-109220000D01*
X159094936Y-109455403D01*
X159094938Y-109455413D01*
X159156094Y-109683655D01*
X159156096Y-109683659D01*
X159156097Y-109683663D01*
X159230668Y-109843581D01*
X159255965Y-109897830D01*
X159255967Y-109897834D01*
X159364281Y-110052521D01*
X159391505Y-110091401D01*
X159558599Y-110258495D01*
X159655384Y-110326265D01*
X159752165Y-110394032D01*
X159752167Y-110394033D01*
X159752170Y-110394035D01*
X159966337Y-110493903D01*
X160194592Y-110555063D01*
X160382918Y-110571539D01*
X160429999Y-110575659D01*
X160430000Y-110575659D01*
X160430001Y-110575659D01*
X160469234Y-110572226D01*
X160665408Y-110555063D01*
X160893663Y-110493903D01*
X161107830Y-110394035D01*
X161301401Y-110258495D01*
X161468495Y-110091401D01*
X161604035Y-109897830D01*
X161703903Y-109683663D01*
X161765063Y-109455408D01*
X161785659Y-109220000D01*
X161765063Y-108984592D01*
X161703903Y-108756337D01*
X161604035Y-108542171D01*
X161519872Y-108421972D01*
X161468494Y-108348597D01*
X161301402Y-108181506D01*
X161301401Y-108181505D01*
X161157390Y-108080667D01*
X161115841Y-108051574D01*
X161072216Y-107996997D01*
X161065024Y-107927498D01*
X161096546Y-107865144D01*
X161115836Y-107848428D01*
X161301401Y-107718495D01*
X161468495Y-107551401D01*
X161604035Y-107357830D01*
X161703903Y-107143663D01*
X161765063Y-106915408D01*
X161785659Y-106680000D01*
X161765063Y-106444592D01*
X161703903Y-106216337D01*
X161604035Y-106002171D01*
X161519872Y-105881972D01*
X161468494Y-105808597D01*
X161301402Y-105641506D01*
X161301396Y-105641501D01*
X161115842Y-105511575D01*
X161072217Y-105456998D01*
X161065023Y-105387500D01*
X161096546Y-105325145D01*
X161115842Y-105308425D01*
X161144853Y-105288111D01*
X161301401Y-105178495D01*
X161468495Y-105011401D01*
X161604035Y-104817830D01*
X161703903Y-104603663D01*
X161765063Y-104375408D01*
X161785659Y-104140000D01*
X161765063Y-103904592D01*
X161703903Y-103676337D01*
X161604035Y-103462171D01*
X161519872Y-103341972D01*
X161468494Y-103268597D01*
X161301402Y-103101506D01*
X161301401Y-103101505D01*
X161157390Y-103000667D01*
X161115841Y-102971574D01*
X161072216Y-102916997D01*
X161065024Y-102847498D01*
X161096546Y-102785144D01*
X161115836Y-102768428D01*
X161301401Y-102638495D01*
X161468495Y-102471401D01*
X161604035Y-102277830D01*
X161703903Y-102063663D01*
X161765063Y-101835408D01*
X161785659Y-101600000D01*
X161765063Y-101364592D01*
X161703903Y-101136337D01*
X161604035Y-100922171D01*
X161603652Y-100921623D01*
X161468494Y-100728597D01*
X161301402Y-100561506D01*
X161301396Y-100561501D01*
X161115842Y-100431575D01*
X161072217Y-100376998D01*
X161065023Y-100307500D01*
X161096546Y-100245145D01*
X161115842Y-100228425D01*
X161144853Y-100208111D01*
X161301401Y-100098495D01*
X161468495Y-99931401D01*
X161604035Y-99737830D01*
X161703903Y-99523663D01*
X161765063Y-99295408D01*
X161785659Y-99060000D01*
X161765063Y-98824592D01*
X161703903Y-98596337D01*
X161604035Y-98382171D01*
X161519872Y-98261972D01*
X161468494Y-98188597D01*
X161301402Y-98021506D01*
X161301401Y-98021505D01*
X161157390Y-97920667D01*
X161115841Y-97891574D01*
X161072216Y-97836997D01*
X161065024Y-97767498D01*
X161096546Y-97705144D01*
X161115836Y-97688428D01*
X161301401Y-97558495D01*
X161468495Y-97391401D01*
X161604035Y-97197830D01*
X161703903Y-96983663D01*
X161765063Y-96755408D01*
X161785659Y-96520000D01*
X161765063Y-96284592D01*
X161703903Y-96056337D01*
X161604035Y-95842171D01*
X161603652Y-95841623D01*
X161468494Y-95648597D01*
X161301402Y-95481506D01*
X161301401Y-95481505D01*
X161115405Y-95351269D01*
X161071781Y-95296692D01*
X161064588Y-95227193D01*
X161096110Y-95164839D01*
X161115405Y-95148119D01*
X161301082Y-95018105D01*
X161468105Y-94851082D01*
X161603600Y-94657578D01*
X161703429Y-94443492D01*
X161703432Y-94443486D01*
X161760636Y-94230000D01*
X160863686Y-94230000D01*
X160889493Y-94189844D01*
X160930000Y-94051889D01*
X160930000Y-93908111D01*
X160889493Y-93770156D01*
X160863686Y-93730000D01*
X161760636Y-93730000D01*
X161760635Y-93729999D01*
X161703432Y-93516513D01*
X161703429Y-93516507D01*
X161603600Y-93302422D01*
X161603599Y-93302420D01*
X161468113Y-93108926D01*
X161468108Y-93108920D01*
X161301078Y-92941890D01*
X161115405Y-92811879D01*
X161071780Y-92757302D01*
X161064588Y-92687804D01*
X161096110Y-92625449D01*
X161115406Y-92608730D01*
X161145216Y-92587857D01*
X161301401Y-92478495D01*
X161468495Y-92311401D01*
X161603651Y-92118377D01*
X161658229Y-92074752D01*
X161705227Y-92065500D01*
X164442573Y-92065500D01*
X164509612Y-92085185D01*
X164541527Y-92114773D01*
X164634605Y-92238028D01*
X164796147Y-92385294D01*
X164796149Y-92385295D01*
X164796150Y-92385296D01*
X164981995Y-92500366D01*
X164982001Y-92500369D01*
X165185829Y-92579332D01*
X165185832Y-92579333D01*
X165234152Y-92588365D01*
X165296430Y-92620031D01*
X165331704Y-92680343D01*
X165328771Y-92750151D01*
X165288562Y-92807292D01*
X165234152Y-92832141D01*
X165185978Y-92841147D01*
X165185970Y-92841149D01*
X164982225Y-92920080D01*
X164982219Y-92920082D01*
X164871927Y-92988372D01*
X164871926Y-92988373D01*
X165443748Y-93560195D01*
X165377031Y-93570762D01*
X165257077Y-93631882D01*
X165161882Y-93727077D01*
X165100762Y-93847031D01*
X165090195Y-93913748D01*
X164516131Y-93339684D01*
X164516130Y-93339685D01*
X164503300Y-93356676D01*
X164405906Y-93552267D01*
X164346109Y-93762435D01*
X164325949Y-93979999D01*
X164325949Y-93980000D01*
X164346109Y-94197564D01*
X164405906Y-94407732D01*
X164503296Y-94603317D01*
X164503301Y-94603325D01*
X164516131Y-94620314D01*
X165090195Y-94046250D01*
X165100762Y-94112969D01*
X165161882Y-94232923D01*
X165257077Y-94328118D01*
X165377031Y-94389238D01*
X165443747Y-94399804D01*
X164871926Y-94971625D01*
X164982218Y-95039916D01*
X165185971Y-95118850D01*
X165234150Y-95127857D01*
X165296431Y-95159525D01*
X165331704Y-95219838D01*
X165328770Y-95289646D01*
X165288561Y-95346786D01*
X165234151Y-95371634D01*
X165185833Y-95380666D01*
X164982001Y-95459630D01*
X164981995Y-95459633D01*
X164796150Y-95574703D01*
X164634604Y-95721972D01*
X164502874Y-95896410D01*
X164502869Y-95896418D01*
X164405441Y-96092079D01*
X164405435Y-96092094D01*
X164345616Y-96302337D01*
X164345615Y-96302339D01*
X164325447Y-96519999D01*
X164325447Y-96520000D01*
X164345615Y-96737660D01*
X164345616Y-96737662D01*
X164405435Y-96947905D01*
X164405441Y-96947920D01*
X164502869Y-97143581D01*
X164502874Y-97143589D01*
X164634604Y-97318027D01*
X164634605Y-97318028D01*
X164796147Y-97465294D01*
X164796149Y-97465295D01*
X164796150Y-97465296D01*
X164981995Y-97580366D01*
X164982001Y-97580369D01*
X165049943Y-97606689D01*
X165185832Y-97659333D01*
X165232795Y-97668112D01*
X165295073Y-97699780D01*
X165330346Y-97760092D01*
X165327412Y-97829900D01*
X165287203Y-97887040D01*
X165232795Y-97911887D01*
X165185832Y-97920667D01*
X165185830Y-97920667D01*
X165185828Y-97920668D01*
X164982001Y-97999630D01*
X164981995Y-97999633D01*
X164796150Y-98114703D01*
X164634604Y-98261972D01*
X164502874Y-98436410D01*
X164502869Y-98436418D01*
X164405441Y-98632079D01*
X164405435Y-98632094D01*
X164345616Y-98842337D01*
X164345615Y-98842339D01*
X164325447Y-99059999D01*
X164325447Y-99060000D01*
X164345615Y-99277660D01*
X164345616Y-99277662D01*
X164405435Y-99487905D01*
X164405441Y-99487920D01*
X164502869Y-99683581D01*
X164502874Y-99683589D01*
X164634604Y-99858027D01*
X164634605Y-99858028D01*
X164796147Y-100005294D01*
X164796149Y-100005295D01*
X164796150Y-100005296D01*
X164981995Y-100120366D01*
X164982001Y-100120369D01*
X165049943Y-100146689D01*
X165185832Y-100199333D01*
X165232795Y-100208112D01*
X165295073Y-100239780D01*
X165330346Y-100300092D01*
X165327412Y-100369900D01*
X165287203Y-100427040D01*
X165232795Y-100451887D01*
X165185832Y-100460667D01*
X165185830Y-100460667D01*
X165185828Y-100460668D01*
X164982001Y-100539630D01*
X164981995Y-100539633D01*
X164796150Y-100654703D01*
X164634604Y-100801972D01*
X164502874Y-100976410D01*
X164502869Y-100976418D01*
X164405441Y-101172079D01*
X164405435Y-101172094D01*
X164345616Y-101382337D01*
X164345615Y-101382339D01*
X164325447Y-101599999D01*
X164325447Y-101600000D01*
X164345615Y-101817660D01*
X164345616Y-101817662D01*
X164405435Y-102027905D01*
X164405441Y-102027920D01*
X164502869Y-102223581D01*
X164502874Y-102223589D01*
X164634604Y-102398027D01*
X164634605Y-102398028D01*
X164796147Y-102545294D01*
X164796149Y-102545295D01*
X164796150Y-102545296D01*
X164981995Y-102660366D01*
X164982001Y-102660369D01*
X165049943Y-102686689D01*
X165185832Y-102739333D01*
X165232795Y-102748112D01*
X165295073Y-102779780D01*
X165330346Y-102840092D01*
X165327412Y-102909900D01*
X165287203Y-102967040D01*
X165232795Y-102991887D01*
X165185832Y-103000667D01*
X165185830Y-103000667D01*
X165185828Y-103000668D01*
X164982001Y-103079630D01*
X164981995Y-103079633D01*
X164796150Y-103194703D01*
X164634604Y-103341972D01*
X164502874Y-103516410D01*
X164502869Y-103516418D01*
X164405441Y-103712079D01*
X164405435Y-103712094D01*
X164345616Y-103922337D01*
X164345615Y-103922339D01*
X164325447Y-104139999D01*
X164325447Y-104140000D01*
X164345615Y-104357660D01*
X164345616Y-104357662D01*
X164405435Y-104567905D01*
X164405441Y-104567920D01*
X164502869Y-104763581D01*
X164502874Y-104763589D01*
X164634604Y-104938027D01*
X164634605Y-104938028D01*
X164796147Y-105085294D01*
X164796149Y-105085295D01*
X164796150Y-105085296D01*
X164981995Y-105200366D01*
X164982001Y-105200369D01*
X165049943Y-105226689D01*
X165185832Y-105279333D01*
X165232795Y-105288112D01*
X165295073Y-105319780D01*
X165330346Y-105380092D01*
X165327412Y-105449900D01*
X165287203Y-105507040D01*
X165232795Y-105531887D01*
X165185832Y-105540667D01*
X165185830Y-105540667D01*
X165185828Y-105540668D01*
X164982001Y-105619630D01*
X164981995Y-105619633D01*
X164796150Y-105734703D01*
X164634604Y-105881972D01*
X164502874Y-106056410D01*
X164502869Y-106056418D01*
X164405441Y-106252079D01*
X164405435Y-106252094D01*
X164345616Y-106462337D01*
X164345615Y-106462339D01*
X164325447Y-106679999D01*
X164325447Y-106680000D01*
X164345615Y-106897660D01*
X164345616Y-106897662D01*
X164405435Y-107107905D01*
X164405441Y-107107920D01*
X164502869Y-107303581D01*
X164502874Y-107303589D01*
X164634604Y-107478027D01*
X164634605Y-107478028D01*
X164796147Y-107625294D01*
X164796149Y-107625295D01*
X164796150Y-107625296D01*
X164981995Y-107740366D01*
X164982001Y-107740369D01*
X165049943Y-107766689D01*
X165185832Y-107819333D01*
X165232795Y-107828112D01*
X165295073Y-107859780D01*
X165330346Y-107920092D01*
X165327412Y-107989900D01*
X165287203Y-108047040D01*
X165232795Y-108071887D01*
X165185832Y-108080667D01*
X165185830Y-108080667D01*
X165185828Y-108080668D01*
X164982001Y-108159630D01*
X164981995Y-108159633D01*
X164796150Y-108274703D01*
X164634604Y-108421972D01*
X164502874Y-108596410D01*
X164502869Y-108596418D01*
X164405441Y-108792079D01*
X164405435Y-108792094D01*
X164345616Y-109002337D01*
X164345615Y-109002339D01*
X164325447Y-109219999D01*
X164325447Y-109220000D01*
X164345615Y-109437660D01*
X164345616Y-109437662D01*
X164405435Y-109647905D01*
X164405441Y-109647920D01*
X164502869Y-109843581D01*
X164502874Y-109843589D01*
X164634604Y-110018027D01*
X164634605Y-110018028D01*
X164796147Y-110165294D01*
X164796149Y-110165295D01*
X164796150Y-110165296D01*
X164981995Y-110280366D01*
X164982001Y-110280369D01*
X165025182Y-110297097D01*
X165185832Y-110359333D01*
X165400703Y-110399500D01*
X165400705Y-110399500D01*
X165619295Y-110399500D01*
X165619297Y-110399500D01*
X165834168Y-110359333D01*
X166038001Y-110280368D01*
X166223853Y-110165294D01*
X166385395Y-110018028D01*
X166517127Y-109843587D01*
X166614563Y-109647910D01*
X166674384Y-109437661D01*
X166694553Y-109220000D01*
X166674384Y-109002339D01*
X166614563Y-108792090D01*
X166596764Y-108756344D01*
X166517130Y-108596418D01*
X166517125Y-108596410D01*
X166385395Y-108421972D01*
X166304907Y-108348597D01*
X166223853Y-108274706D01*
X166223850Y-108274704D01*
X166223849Y-108274703D01*
X166038004Y-108159633D01*
X166037998Y-108159630D01*
X165877351Y-108097396D01*
X165834168Y-108080667D01*
X165787204Y-108071887D01*
X165724926Y-108040221D01*
X165689653Y-107979908D01*
X165692587Y-107910100D01*
X165732796Y-107852960D01*
X165787204Y-107828112D01*
X165834168Y-107819333D01*
X166038001Y-107740368D01*
X166223853Y-107625294D01*
X166385395Y-107478028D01*
X166517127Y-107303587D01*
X166614563Y-107107910D01*
X166674384Y-106897661D01*
X166694553Y-106680000D01*
X166674384Y-106462339D01*
X166614563Y-106252090D01*
X166596764Y-106216344D01*
X166517130Y-106056418D01*
X166517125Y-106056410D01*
X166385395Y-105881972D01*
X166304907Y-105808597D01*
X166223853Y-105734706D01*
X166223850Y-105734704D01*
X166223849Y-105734703D01*
X166038004Y-105619633D01*
X166037998Y-105619630D01*
X165877351Y-105557396D01*
X165834168Y-105540667D01*
X165787204Y-105531887D01*
X165724926Y-105500221D01*
X165689653Y-105439908D01*
X165692587Y-105370100D01*
X165732796Y-105312960D01*
X165787204Y-105288112D01*
X165834168Y-105279333D01*
X166038001Y-105200368D01*
X166223853Y-105085294D01*
X166385395Y-104938028D01*
X166517127Y-104763587D01*
X166614563Y-104567910D01*
X166674384Y-104357661D01*
X166694553Y-104140000D01*
X166674384Y-103922339D01*
X166614563Y-103712090D01*
X166596764Y-103676344D01*
X166517130Y-103516418D01*
X166517125Y-103516410D01*
X166385395Y-103341972D01*
X166304907Y-103268597D01*
X166223853Y-103194706D01*
X166223850Y-103194704D01*
X166223849Y-103194703D01*
X166038004Y-103079633D01*
X166037998Y-103079630D01*
X165877351Y-103017396D01*
X165834168Y-103000667D01*
X165787204Y-102991887D01*
X165724926Y-102960221D01*
X165689653Y-102899908D01*
X165692587Y-102830100D01*
X165732796Y-102772960D01*
X165787204Y-102748112D01*
X165834168Y-102739333D01*
X166038001Y-102660368D01*
X166223853Y-102545294D01*
X166385395Y-102398028D01*
X166517127Y-102223587D01*
X166614563Y-102027910D01*
X166674384Y-101817661D01*
X166694553Y-101600000D01*
X166674384Y-101382339D01*
X166614563Y-101172090D01*
X166596764Y-101136344D01*
X166517130Y-100976418D01*
X166517125Y-100976410D01*
X166385395Y-100801972D01*
X166304907Y-100728597D01*
X166223853Y-100654706D01*
X166223850Y-100654704D01*
X166223849Y-100654703D01*
X166038004Y-100539633D01*
X166037998Y-100539630D01*
X165877351Y-100477396D01*
X165834168Y-100460667D01*
X165787204Y-100451887D01*
X165724926Y-100420221D01*
X165689653Y-100359908D01*
X165692587Y-100290100D01*
X165732796Y-100232960D01*
X165787204Y-100208112D01*
X165834168Y-100199333D01*
X166038001Y-100120368D01*
X166223853Y-100005294D01*
X166385395Y-99858028D01*
X166517127Y-99683587D01*
X166614563Y-99487910D01*
X166674384Y-99277661D01*
X166694553Y-99060000D01*
X166674384Y-98842339D01*
X166614563Y-98632090D01*
X166596764Y-98596344D01*
X166517130Y-98436418D01*
X166517125Y-98436410D01*
X166385395Y-98261972D01*
X166304907Y-98188597D01*
X166223853Y-98114706D01*
X166223850Y-98114704D01*
X166223849Y-98114703D01*
X166038004Y-97999633D01*
X166037998Y-97999630D01*
X165877351Y-97937396D01*
X165834168Y-97920667D01*
X165787204Y-97911887D01*
X165724926Y-97880221D01*
X165689653Y-97819908D01*
X165692587Y-97750100D01*
X165732796Y-97692960D01*
X165787204Y-97668112D01*
X165834168Y-97659333D01*
X166038001Y-97580368D01*
X166223853Y-97465294D01*
X166385395Y-97318028D01*
X166517127Y-97143587D01*
X166614563Y-96947910D01*
X166674384Y-96737661D01*
X166694553Y-96520000D01*
X166674384Y-96302339D01*
X166614563Y-96092090D01*
X166596764Y-96056344D01*
X166517130Y-95896418D01*
X166517125Y-95896410D01*
X166385395Y-95721972D01*
X166304907Y-95648597D01*
X166223853Y-95574706D01*
X166223850Y-95574704D01*
X166223849Y-95574703D01*
X166038004Y-95459633D01*
X166037998Y-95459630D01*
X165877351Y-95397396D01*
X165834168Y-95380667D01*
X165785847Y-95371634D01*
X165723568Y-95339966D01*
X165688295Y-95279654D01*
X165691229Y-95209846D01*
X165731438Y-95152706D01*
X165785849Y-95127857D01*
X165834028Y-95118850D01*
X165834029Y-95118850D01*
X166037782Y-95039915D01*
X166148071Y-94971626D01*
X166148071Y-94971625D01*
X165576252Y-94399804D01*
X165642969Y-94389238D01*
X165762923Y-94328118D01*
X165858118Y-94232923D01*
X165919238Y-94112969D01*
X165929804Y-94046251D01*
X166503867Y-94620314D01*
X166516698Y-94603325D01*
X166516700Y-94603321D01*
X166614093Y-94407732D01*
X166673890Y-94197564D01*
X166694051Y-93980000D01*
X166694051Y-93979999D01*
X166673890Y-93762435D01*
X166614093Y-93552267D01*
X166532815Y-93389039D01*
X166520554Y-93320254D01*
X166547427Y-93255759D01*
X166604903Y-93216031D01*
X166674733Y-93213683D01*
X166731495Y-93246085D01*
X168604259Y-95118850D01*
X170389197Y-96903788D01*
X170399022Y-96916051D01*
X170399243Y-96915869D01*
X170404211Y-96921874D01*
X170453932Y-96968566D01*
X170455332Y-96969923D01*
X170475523Y-96990115D01*
X170475527Y-96990118D01*
X170475529Y-96990120D01*
X170481011Y-96994373D01*
X170485443Y-96998157D01*
X170519418Y-97030062D01*
X170536976Y-97039714D01*
X170553233Y-97050393D01*
X170569064Y-97062673D01*
X170588737Y-97071186D01*
X170611833Y-97081182D01*
X170617077Y-97083750D01*
X170657908Y-97106197D01*
X170670523Y-97109435D01*
X170677305Y-97111177D01*
X170695719Y-97117481D01*
X170714104Y-97125438D01*
X170760157Y-97132732D01*
X170765826Y-97133906D01*
X170810981Y-97145500D01*
X170831016Y-97145500D01*
X170850413Y-97147026D01*
X170870196Y-97150160D01*
X170916583Y-97145775D01*
X170922422Y-97145500D01*
X172362573Y-97145500D01*
X172429612Y-97165185D01*
X172461527Y-97194773D01*
X172554605Y-97318028D01*
X172716147Y-97465294D01*
X172716149Y-97465295D01*
X172716150Y-97465296D01*
X172901995Y-97580366D01*
X172902001Y-97580369D01*
X172969943Y-97606689D01*
X173105832Y-97659333D01*
X173152795Y-97668112D01*
X173215073Y-97699780D01*
X173250346Y-97760092D01*
X173247412Y-97829900D01*
X173207203Y-97887040D01*
X173152795Y-97911887D01*
X173105832Y-97920667D01*
X173105830Y-97920667D01*
X173105828Y-97920668D01*
X172902001Y-97999630D01*
X172901995Y-97999633D01*
X172716150Y-98114703D01*
X172554604Y-98261972D01*
X172422874Y-98436410D01*
X172422869Y-98436418D01*
X172325441Y-98632079D01*
X172325435Y-98632094D01*
X172265616Y-98842337D01*
X172265615Y-98842339D01*
X172245447Y-99059999D01*
X172245447Y-99060000D01*
X172265615Y-99277660D01*
X172265616Y-99277662D01*
X172325435Y-99487905D01*
X172325441Y-99487920D01*
X172422869Y-99683581D01*
X172422874Y-99683589D01*
X172554604Y-99858027D01*
X172554605Y-99858028D01*
X172716147Y-100005294D01*
X172716149Y-100005295D01*
X172716150Y-100005296D01*
X172901995Y-100120366D01*
X172902001Y-100120369D01*
X172969943Y-100146689D01*
X173105832Y-100199333D01*
X173152795Y-100208112D01*
X173215073Y-100239780D01*
X173250346Y-100300092D01*
X173247412Y-100369900D01*
X173207203Y-100427040D01*
X173152795Y-100451887D01*
X173105832Y-100460667D01*
X173105830Y-100460667D01*
X173105828Y-100460668D01*
X172902001Y-100539630D01*
X172901995Y-100539633D01*
X172716150Y-100654703D01*
X172554604Y-100801972D01*
X172422874Y-100976410D01*
X172422869Y-100976418D01*
X172325441Y-101172079D01*
X172325435Y-101172094D01*
X172265616Y-101382337D01*
X172265615Y-101382339D01*
X172245447Y-101599999D01*
X172245447Y-101600000D01*
X172265615Y-101817660D01*
X172265616Y-101817662D01*
X172325435Y-102027905D01*
X172325441Y-102027920D01*
X172422869Y-102223581D01*
X172422874Y-102223589D01*
X172554604Y-102398027D01*
X172554605Y-102398028D01*
X172716147Y-102545294D01*
X172716149Y-102545295D01*
X172716150Y-102545296D01*
X172901995Y-102660366D01*
X172902001Y-102660369D01*
X172969943Y-102686689D01*
X173105832Y-102739333D01*
X173152795Y-102748112D01*
X173215073Y-102779780D01*
X173250346Y-102840092D01*
X173247412Y-102909900D01*
X173207203Y-102967040D01*
X173152795Y-102991887D01*
X173105832Y-103000667D01*
X173105830Y-103000667D01*
X173105828Y-103000668D01*
X172902001Y-103079630D01*
X172901995Y-103079633D01*
X172716150Y-103194703D01*
X172554604Y-103341972D01*
X172422874Y-103516410D01*
X172422869Y-103516418D01*
X172325441Y-103712079D01*
X172325435Y-103712094D01*
X172265616Y-103922337D01*
X172265615Y-103922339D01*
X172245447Y-104139999D01*
X172245447Y-104140000D01*
X172265615Y-104357660D01*
X172265616Y-104357662D01*
X172325435Y-104567905D01*
X172325441Y-104567920D01*
X172422869Y-104763581D01*
X172422874Y-104763589D01*
X172554604Y-104938027D01*
X172554605Y-104938028D01*
X172716147Y-105085294D01*
X172716149Y-105085295D01*
X172716150Y-105085296D01*
X172901995Y-105200366D01*
X172902001Y-105200369D01*
X172969943Y-105226689D01*
X173105832Y-105279333D01*
X173152795Y-105288112D01*
X173215073Y-105319780D01*
X173250346Y-105380092D01*
X173247412Y-105449900D01*
X173207203Y-105507040D01*
X173152795Y-105531887D01*
X173105832Y-105540667D01*
X173105830Y-105540667D01*
X173105828Y-105540668D01*
X172902001Y-105619630D01*
X172901995Y-105619633D01*
X172716150Y-105734703D01*
X172554604Y-105881972D01*
X172422874Y-106056410D01*
X172422869Y-106056418D01*
X172325441Y-106252079D01*
X172325435Y-106252094D01*
X172265616Y-106462337D01*
X172265615Y-106462339D01*
X172245447Y-106679999D01*
X172245447Y-106680000D01*
X172265615Y-106897660D01*
X172265616Y-106897662D01*
X172325435Y-107107905D01*
X172325441Y-107107920D01*
X172422869Y-107303581D01*
X172422874Y-107303589D01*
X172554604Y-107478027D01*
X172554605Y-107478028D01*
X172716147Y-107625294D01*
X172716149Y-107625295D01*
X172716150Y-107625296D01*
X172901995Y-107740366D01*
X172902001Y-107740369D01*
X172969943Y-107766689D01*
X173105832Y-107819333D01*
X173152795Y-107828112D01*
X173215073Y-107859780D01*
X173250346Y-107920092D01*
X173247412Y-107989900D01*
X173207203Y-108047040D01*
X173152795Y-108071887D01*
X173105832Y-108080667D01*
X173105830Y-108080667D01*
X173105828Y-108080668D01*
X172902001Y-108159630D01*
X172901995Y-108159633D01*
X172716150Y-108274703D01*
X172554604Y-108421972D01*
X172422874Y-108596410D01*
X172422869Y-108596418D01*
X172325441Y-108792079D01*
X172325435Y-108792094D01*
X172265616Y-109002337D01*
X172265615Y-109002339D01*
X172245447Y-109219999D01*
X172245447Y-109220000D01*
X172265615Y-109437660D01*
X172265616Y-109437662D01*
X172325435Y-109647905D01*
X172325441Y-109647920D01*
X172422869Y-109843581D01*
X172422874Y-109843589D01*
X172554604Y-110018027D01*
X172554605Y-110018028D01*
X172716147Y-110165294D01*
X172716149Y-110165295D01*
X172716150Y-110165296D01*
X172901995Y-110280366D01*
X172902001Y-110280369D01*
X172945182Y-110297097D01*
X173105832Y-110359333D01*
X173320703Y-110399500D01*
X173320705Y-110399500D01*
X173539295Y-110399500D01*
X173539297Y-110399500D01*
X173754168Y-110359333D01*
X173958001Y-110280368D01*
X174143853Y-110165294D01*
X174305395Y-110018028D01*
X174437127Y-109843587D01*
X174534563Y-109647910D01*
X174594384Y-109437661D01*
X174614553Y-109220000D01*
X174594384Y-109002339D01*
X174534563Y-108792090D01*
X174516764Y-108756344D01*
X174437130Y-108596418D01*
X174437125Y-108596410D01*
X174305395Y-108421972D01*
X174224907Y-108348597D01*
X174143853Y-108274706D01*
X174143850Y-108274704D01*
X174143849Y-108274703D01*
X173958004Y-108159633D01*
X173957998Y-108159630D01*
X173797351Y-108097396D01*
X173754168Y-108080667D01*
X173707204Y-108071887D01*
X173644926Y-108040221D01*
X173609653Y-107979908D01*
X173612587Y-107910100D01*
X173652796Y-107852960D01*
X173707204Y-107828112D01*
X173754168Y-107819333D01*
X173958001Y-107740368D01*
X174143853Y-107625294D01*
X174305395Y-107478028D01*
X174437127Y-107303587D01*
X174534563Y-107107910D01*
X174594384Y-106897661D01*
X174614553Y-106680000D01*
X174594384Y-106462339D01*
X174534563Y-106252090D01*
X174516764Y-106216344D01*
X174437130Y-106056418D01*
X174437125Y-106056410D01*
X174305395Y-105881972D01*
X174224907Y-105808597D01*
X174143853Y-105734706D01*
X174143850Y-105734704D01*
X174143849Y-105734703D01*
X173958004Y-105619633D01*
X173957998Y-105619630D01*
X173797351Y-105557396D01*
X173754168Y-105540667D01*
X173707204Y-105531887D01*
X173644926Y-105500221D01*
X173609653Y-105439908D01*
X173612587Y-105370100D01*
X173652796Y-105312960D01*
X173707204Y-105288112D01*
X173754168Y-105279333D01*
X173958001Y-105200368D01*
X174143853Y-105085294D01*
X174305395Y-104938028D01*
X174437127Y-104763587D01*
X174534563Y-104567910D01*
X174594384Y-104357661D01*
X174614553Y-104140000D01*
X174594384Y-103922339D01*
X174534563Y-103712090D01*
X174516764Y-103676344D01*
X174437130Y-103516418D01*
X174437125Y-103516410D01*
X174305395Y-103341972D01*
X174224907Y-103268597D01*
X174143853Y-103194706D01*
X174143850Y-103194704D01*
X174143849Y-103194703D01*
X173958004Y-103079633D01*
X173957998Y-103079630D01*
X173797351Y-103017396D01*
X173754168Y-103000667D01*
X173707204Y-102991887D01*
X173644926Y-102960221D01*
X173609653Y-102899908D01*
X173612587Y-102830100D01*
X173652796Y-102772960D01*
X173707204Y-102748112D01*
X173754168Y-102739333D01*
X173958001Y-102660368D01*
X174143853Y-102545294D01*
X174305395Y-102398028D01*
X174398472Y-102274773D01*
X174454582Y-102233137D01*
X174497427Y-102225500D01*
X176934773Y-102225500D01*
X177001812Y-102245185D01*
X177036348Y-102278377D01*
X177171501Y-102471396D01*
X177171506Y-102471402D01*
X177338597Y-102638493D01*
X177338603Y-102638498D01*
X177524158Y-102768425D01*
X177567783Y-102823002D01*
X177574977Y-102892500D01*
X177543454Y-102954855D01*
X177524158Y-102971575D01*
X177338597Y-103101505D01*
X177171505Y-103268597D01*
X177035965Y-103462169D01*
X177035964Y-103462171D01*
X176936098Y-103676335D01*
X176936094Y-103676344D01*
X176874938Y-103904586D01*
X176874936Y-103904596D01*
X176854341Y-104139999D01*
X176854341Y-104140000D01*
X176874936Y-104375403D01*
X176874938Y-104375413D01*
X176936094Y-104603655D01*
X176936096Y-104603659D01*
X176936097Y-104603663D01*
X177010668Y-104763581D01*
X177035965Y-104817830D01*
X177035967Y-104817834D01*
X177171501Y-105011395D01*
X177171506Y-105011402D01*
X177338597Y-105178493D01*
X177338603Y-105178498D01*
X177524158Y-105308425D01*
X177567783Y-105363002D01*
X177574977Y-105432500D01*
X177543454Y-105494855D01*
X177524158Y-105511575D01*
X177338597Y-105641505D01*
X177171505Y-105808597D01*
X177035965Y-106002169D01*
X177035964Y-106002171D01*
X176936098Y-106216335D01*
X176936094Y-106216344D01*
X176874938Y-106444586D01*
X176874936Y-106444596D01*
X176854341Y-106679999D01*
X176854341Y-106680000D01*
X176874936Y-106915403D01*
X176874938Y-106915413D01*
X176936094Y-107143655D01*
X176936096Y-107143659D01*
X176936097Y-107143663D01*
X177010668Y-107303581D01*
X177035965Y-107357830D01*
X177035967Y-107357834D01*
X177171501Y-107551395D01*
X177171506Y-107551402D01*
X177338597Y-107718493D01*
X177338603Y-107718498D01*
X177524158Y-107848425D01*
X177567783Y-107903002D01*
X177574977Y-107972500D01*
X177543454Y-108034855D01*
X177524158Y-108051575D01*
X177338597Y-108181505D01*
X177171505Y-108348597D01*
X177035965Y-108542169D01*
X177035964Y-108542171D01*
X176936098Y-108756335D01*
X176936094Y-108756344D01*
X176874938Y-108984586D01*
X176874936Y-108984596D01*
X176854341Y-109219999D01*
X176854341Y-109220000D01*
X176874936Y-109455403D01*
X176874938Y-109455413D01*
X176936094Y-109683655D01*
X176936096Y-109683659D01*
X176936097Y-109683663D01*
X177010668Y-109843581D01*
X177035965Y-109897830D01*
X177035967Y-109897834D01*
X177144281Y-110052521D01*
X177171505Y-110091401D01*
X177338599Y-110258495D01*
X177435384Y-110326264D01*
X177532165Y-110394032D01*
X177532167Y-110394033D01*
X177532170Y-110394035D01*
X177746337Y-110493903D01*
X177974592Y-110555063D01*
X178162918Y-110571539D01*
X178209999Y-110575659D01*
X178210000Y-110575659D01*
X178210001Y-110575659D01*
X178249234Y-110572226D01*
X178445408Y-110555063D01*
X178673663Y-110493903D01*
X178887830Y-110394035D01*
X179081401Y-110258495D01*
X179248495Y-110091401D01*
X179384035Y-109897830D01*
X179483903Y-109683663D01*
X179545063Y-109455408D01*
X179565659Y-109220000D01*
X179545063Y-108984592D01*
X179483903Y-108756337D01*
X179384035Y-108542171D01*
X179299872Y-108421972D01*
X179248494Y-108348597D01*
X179081402Y-108181506D01*
X179081401Y-108181505D01*
X178937390Y-108080667D01*
X178895841Y-108051574D01*
X178852216Y-107996997D01*
X178845024Y-107927498D01*
X178876546Y-107865144D01*
X178895836Y-107848428D01*
X179081401Y-107718495D01*
X179248495Y-107551401D01*
X179384035Y-107357830D01*
X179483903Y-107143663D01*
X179545063Y-106915408D01*
X179565659Y-106680000D01*
X179545063Y-106444592D01*
X179483903Y-106216337D01*
X179384035Y-106002171D01*
X179299872Y-105881972D01*
X179248494Y-105808597D01*
X179081402Y-105641506D01*
X179081396Y-105641501D01*
X178895842Y-105511575D01*
X178852217Y-105456998D01*
X178845023Y-105387500D01*
X178876546Y-105325145D01*
X178895842Y-105308425D01*
X178924853Y-105288111D01*
X179081401Y-105178495D01*
X179248495Y-105011401D01*
X179384035Y-104817830D01*
X179483903Y-104603663D01*
X179545063Y-104375408D01*
X179565659Y-104140000D01*
X179545063Y-103904592D01*
X179483903Y-103676337D01*
X179384035Y-103462171D01*
X179299872Y-103341972D01*
X179248494Y-103268597D01*
X179081402Y-103101506D01*
X179081401Y-103101505D01*
X178937390Y-103000667D01*
X178895841Y-102971574D01*
X178852216Y-102916997D01*
X178845024Y-102847498D01*
X178876546Y-102785144D01*
X178895836Y-102768428D01*
X179081401Y-102638495D01*
X179248495Y-102471401D01*
X179384035Y-102277830D01*
X179483903Y-102063663D01*
X179545063Y-101835408D01*
X179565659Y-101600000D01*
X179545063Y-101364592D01*
X179483903Y-101136337D01*
X179384035Y-100922171D01*
X179383652Y-100921623D01*
X179248494Y-100728597D01*
X179081402Y-100561506D01*
X179081396Y-100561501D01*
X178895842Y-100431575D01*
X178852217Y-100376998D01*
X178845023Y-100307500D01*
X178876546Y-100245145D01*
X178895842Y-100228425D01*
X178924853Y-100208111D01*
X179081401Y-100098495D01*
X179248495Y-99931401D01*
X179384035Y-99737830D01*
X179483903Y-99523663D01*
X179545063Y-99295408D01*
X179565659Y-99060000D01*
X179545063Y-98824592D01*
X179483903Y-98596337D01*
X179384035Y-98382171D01*
X179299872Y-98261972D01*
X179248494Y-98188597D01*
X179081402Y-98021506D01*
X179081401Y-98021505D01*
X178937390Y-97920667D01*
X178895841Y-97891574D01*
X178852216Y-97836997D01*
X178845024Y-97767498D01*
X178876546Y-97705144D01*
X178895836Y-97688428D01*
X179081401Y-97558495D01*
X179248495Y-97391401D01*
X179384035Y-97197830D01*
X179483903Y-96983663D01*
X179545063Y-96755408D01*
X179565659Y-96520000D01*
X179545063Y-96284592D01*
X179483903Y-96056337D01*
X179384035Y-95842171D01*
X179383652Y-95841623D01*
X179248494Y-95648597D01*
X179081402Y-95481506D01*
X179081396Y-95481501D01*
X178895842Y-95351575D01*
X178852217Y-95296998D01*
X178845023Y-95227500D01*
X178876546Y-95165145D01*
X178895842Y-95148425D01*
X178925216Y-95127857D01*
X179081401Y-95018495D01*
X179248495Y-94851401D01*
X179384035Y-94657830D01*
X179483903Y-94443663D01*
X179545063Y-94215408D01*
X179565659Y-93980000D01*
X179545063Y-93744592D01*
X179483903Y-93516337D01*
X179384035Y-93302171D01*
X179383652Y-93301623D01*
X179248494Y-93108597D01*
X179081402Y-92941506D01*
X179081401Y-92941505D01*
X178912860Y-92823491D01*
X178895405Y-92811269D01*
X178851781Y-92756692D01*
X178844588Y-92687193D01*
X178876110Y-92624839D01*
X178895405Y-92608119D01*
X179081082Y-92478105D01*
X179248105Y-92311082D01*
X179383600Y-92117578D01*
X179483429Y-91903492D01*
X179483432Y-91903486D01*
X179540636Y-91690000D01*
X178643686Y-91690000D01*
X178669493Y-91649844D01*
X178710000Y-91511889D01*
X178710000Y-91368111D01*
X178669493Y-91230156D01*
X178643686Y-91190000D01*
X179540636Y-91190000D01*
X179540635Y-91189999D01*
X179483432Y-90976513D01*
X179483429Y-90976507D01*
X179383600Y-90762422D01*
X179383599Y-90762420D01*
X179248113Y-90568926D01*
X179248108Y-90568920D01*
X179081078Y-90401890D01*
X178895405Y-90271879D01*
X178851780Y-90217302D01*
X178844588Y-90147804D01*
X178876110Y-90085449D01*
X178895406Y-90068730D01*
X178924853Y-90048111D01*
X179081401Y-89938495D01*
X179248495Y-89771401D01*
X179384035Y-89577830D01*
X179483903Y-89363663D01*
X179545063Y-89135408D01*
X179565659Y-88900000D01*
X179563289Y-88872917D01*
X179554801Y-88775893D01*
X179545063Y-88664592D01*
X179483903Y-88436337D01*
X179384035Y-88222171D01*
X179299872Y-88101972D01*
X179248494Y-88028597D01*
X179081402Y-87861506D01*
X179081401Y-87861505D01*
X178937390Y-87760667D01*
X178895841Y-87731574D01*
X178852216Y-87676997D01*
X178845024Y-87607498D01*
X178876546Y-87545144D01*
X178895836Y-87528428D01*
X179081401Y-87398495D01*
X179248495Y-87231401D01*
X179384035Y-87037830D01*
X179483903Y-86823663D01*
X179545063Y-86595408D01*
X179565659Y-86360000D01*
X179545063Y-86124592D01*
X179483903Y-85896337D01*
X179384035Y-85682171D01*
X179299872Y-85561972D01*
X179248494Y-85488597D01*
X179081402Y-85321506D01*
X179081396Y-85321501D01*
X178895842Y-85191575D01*
X178852217Y-85136998D01*
X178845023Y-85067500D01*
X178876546Y-85005145D01*
X178895842Y-84988425D01*
X178924853Y-84968111D01*
X179081401Y-84858495D01*
X179248495Y-84691401D01*
X179384035Y-84497830D01*
X179483903Y-84283663D01*
X179545063Y-84055408D01*
X179565659Y-83820000D01*
X179545063Y-83584592D01*
X179483903Y-83356337D01*
X179384035Y-83142171D01*
X179299872Y-83021972D01*
X179248494Y-82948597D01*
X179081402Y-82781506D01*
X179081401Y-82781505D01*
X178937390Y-82680667D01*
X178895841Y-82651574D01*
X178852216Y-82596997D01*
X178845024Y-82527498D01*
X178876546Y-82465144D01*
X178895836Y-82448428D01*
X179081401Y-82318495D01*
X179248495Y-82151401D01*
X179384035Y-81957830D01*
X179483903Y-81743663D01*
X179545063Y-81515408D01*
X179565659Y-81280000D01*
X179545063Y-81044592D01*
X179483903Y-80816337D01*
X179384035Y-80602171D01*
X179299872Y-80481972D01*
X179248494Y-80408597D01*
X179081402Y-80241506D01*
X179081396Y-80241501D01*
X178895842Y-80111575D01*
X178852217Y-80056998D01*
X178845023Y-79987500D01*
X178876546Y-79925145D01*
X178895842Y-79908425D01*
X178924853Y-79888111D01*
X179081401Y-79778495D01*
X179248495Y-79611401D01*
X179384035Y-79417830D01*
X179483903Y-79203663D01*
X179545063Y-78975408D01*
X179565659Y-78740000D01*
X179545063Y-78504592D01*
X179483903Y-78276337D01*
X179384035Y-78062171D01*
X179248495Y-77868599D01*
X179126567Y-77746671D01*
X179093084Y-77685351D01*
X179098068Y-77615659D01*
X179139939Y-77559725D01*
X179170915Y-77542810D01*
X179302331Y-77493796D01*
X179417546Y-77407546D01*
X179503796Y-77292331D01*
X179554091Y-77157483D01*
X179560500Y-77097873D01*
X179560499Y-75302128D01*
X179554091Y-75242517D01*
X179524602Y-75163454D01*
X179503797Y-75107671D01*
X179503793Y-75107664D01*
X179417547Y-74992455D01*
X179417544Y-74992452D01*
X179302335Y-74906206D01*
X179302328Y-74906202D01*
X179167482Y-74855908D01*
X179167483Y-74855908D01*
X179107883Y-74849501D01*
X179107881Y-74849500D01*
X179107873Y-74849500D01*
X179107864Y-74849500D01*
X177312129Y-74849500D01*
X177312123Y-74849501D01*
X177252516Y-74855908D01*
X177117671Y-74906202D01*
X177117664Y-74906206D01*
X177002455Y-74992452D01*
X177002452Y-74992455D01*
X176916206Y-75107664D01*
X176916202Y-75107671D01*
X176865908Y-75242517D01*
X176859501Y-75302116D01*
X176859501Y-75302123D01*
X176859500Y-75302135D01*
X176859500Y-77097870D01*
X176859501Y-77097876D01*
X176865908Y-77157483D01*
X176916202Y-77292328D01*
X176916206Y-77292335D01*
X177002452Y-77407544D01*
X177002455Y-77407547D01*
X177117664Y-77493793D01*
X177117671Y-77493797D01*
X177249081Y-77542810D01*
X177305015Y-77584681D01*
X177329432Y-77650145D01*
X177314580Y-77718418D01*
X177293430Y-77746673D01*
X177171503Y-77868600D01*
X177035965Y-78062169D01*
X177035964Y-78062171D01*
X176936098Y-78276335D01*
X176936094Y-78276344D01*
X176874938Y-78504586D01*
X176874936Y-78504596D01*
X176854341Y-78739999D01*
X176854341Y-78740000D01*
X176874936Y-78975403D01*
X176874938Y-78975413D01*
X176936094Y-79203655D01*
X176936096Y-79203659D01*
X176936097Y-79203663D01*
X177010668Y-79363581D01*
X177035965Y-79417830D01*
X177035967Y-79417834D01*
X177171501Y-79611395D01*
X177171506Y-79611402D01*
X177338597Y-79778493D01*
X177338603Y-79778498D01*
X177524158Y-79908425D01*
X177567783Y-79963002D01*
X177574977Y-80032500D01*
X177543454Y-80094855D01*
X177524158Y-80111575D01*
X177338597Y-80241505D01*
X177171505Y-80408597D01*
X177035965Y-80602169D01*
X177035964Y-80602171D01*
X176936098Y-80816335D01*
X176936094Y-80816344D01*
X176874938Y-81044586D01*
X176874936Y-81044596D01*
X176854341Y-81279999D01*
X176854341Y-81280000D01*
X176874936Y-81515403D01*
X176874938Y-81515413D01*
X176936094Y-81743655D01*
X176936096Y-81743659D01*
X176936097Y-81743663D01*
X177010668Y-81903581D01*
X177035965Y-81957830D01*
X177035967Y-81957834D01*
X177171501Y-82151395D01*
X177171506Y-82151402D01*
X177338597Y-82318493D01*
X177338603Y-82318498D01*
X177524158Y-82448425D01*
X177567783Y-82503002D01*
X177574977Y-82572500D01*
X177543454Y-82634855D01*
X177524158Y-82651575D01*
X177338597Y-82781505D01*
X177171505Y-82948597D01*
X177035965Y-83142169D01*
X177035964Y-83142171D01*
X176936098Y-83356335D01*
X176936094Y-83356344D01*
X176874938Y-83584586D01*
X176874936Y-83584596D01*
X176854341Y-83819999D01*
X176854341Y-83820000D01*
X176874936Y-84055403D01*
X176874938Y-84055413D01*
X176936094Y-84283655D01*
X176936096Y-84283659D01*
X176936097Y-84283663D01*
X177010668Y-84443581D01*
X177035965Y-84497830D01*
X177035967Y-84497834D01*
X177171501Y-84691395D01*
X177171506Y-84691402D01*
X177338597Y-84858493D01*
X177338603Y-84858498D01*
X177524158Y-84988425D01*
X177567783Y-85043002D01*
X177574977Y-85112500D01*
X177543454Y-85174855D01*
X177524158Y-85191575D01*
X177338597Y-85321505D01*
X177171505Y-85488597D01*
X177035965Y-85682169D01*
X177035964Y-85682171D01*
X176936098Y-85896335D01*
X176936094Y-85896344D01*
X176874938Y-86124586D01*
X176874936Y-86124596D01*
X176854341Y-86359999D01*
X176854341Y-86360000D01*
X176874936Y-86595403D01*
X176874938Y-86595413D01*
X176936094Y-86823655D01*
X176936096Y-86823659D01*
X176936097Y-86823663D01*
X177010668Y-86983581D01*
X177035965Y-87037830D01*
X177035967Y-87037834D01*
X177171501Y-87231395D01*
X177171506Y-87231402D01*
X177338597Y-87398493D01*
X177338603Y-87398498D01*
X177524158Y-87528425D01*
X177567783Y-87583002D01*
X177574977Y-87652500D01*
X177543454Y-87714855D01*
X177524158Y-87731575D01*
X177338597Y-87861505D01*
X177171505Y-88028597D01*
X177035965Y-88222169D01*
X177035964Y-88222171D01*
X176936098Y-88436335D01*
X176936094Y-88436344D01*
X176874938Y-88664586D01*
X176874936Y-88664596D01*
X176854341Y-88899999D01*
X176854341Y-88900000D01*
X176874936Y-89135403D01*
X176874938Y-89135413D01*
X176936094Y-89363655D01*
X176936096Y-89363659D01*
X176936097Y-89363663D01*
X177010668Y-89523581D01*
X177035965Y-89577830D01*
X177035967Y-89577834D01*
X177144281Y-89732521D01*
X177171505Y-89771401D01*
X177338599Y-89938495D01*
X177482610Y-90039333D01*
X177524594Y-90068730D01*
X177568219Y-90123307D01*
X177575413Y-90192805D01*
X177543890Y-90255160D01*
X177524595Y-90271880D01*
X177338922Y-90401890D01*
X177338920Y-90401891D01*
X177171891Y-90568920D01*
X177171886Y-90568926D01*
X177036400Y-90762420D01*
X177036399Y-90762422D01*
X176936570Y-90976507D01*
X176936567Y-90976513D01*
X176879364Y-91189999D01*
X176879364Y-91190000D01*
X177776314Y-91190000D01*
X177750507Y-91230156D01*
X177710000Y-91368111D01*
X177710000Y-91511889D01*
X177750507Y-91649844D01*
X177776314Y-91690000D01*
X176879364Y-91690000D01*
X176936567Y-91903486D01*
X176936570Y-91903492D01*
X177036399Y-92117578D01*
X177171894Y-92311082D01*
X177338917Y-92478105D01*
X177524595Y-92608119D01*
X177568219Y-92662696D01*
X177575412Y-92732195D01*
X177543890Y-92794549D01*
X177524595Y-92811269D01*
X177338594Y-92941508D01*
X177171505Y-93108597D01*
X177036348Y-93301623D01*
X176981771Y-93345248D01*
X176934773Y-93354500D01*
X174497427Y-93354500D01*
X174430388Y-93334815D01*
X174398473Y-93305227D01*
X174305395Y-93181972D01*
X174224907Y-93108597D01*
X174143853Y-93034706D01*
X174143850Y-93034704D01*
X174143849Y-93034703D01*
X173958004Y-92919633D01*
X173957998Y-92919630D01*
X173755412Y-92841149D01*
X173754168Y-92840667D01*
X173705847Y-92831634D01*
X173643568Y-92799966D01*
X173608295Y-92739654D01*
X173611229Y-92669846D01*
X173651438Y-92612706D01*
X173705849Y-92587857D01*
X173754028Y-92578850D01*
X173754029Y-92578850D01*
X173957782Y-92499915D01*
X174068071Y-92431626D01*
X174068071Y-92431625D01*
X173496252Y-91859804D01*
X173562969Y-91849238D01*
X173682923Y-91788118D01*
X173778118Y-91692923D01*
X173839238Y-91572969D01*
X173849804Y-91506251D01*
X174423867Y-92080314D01*
X174436698Y-92063325D01*
X174436700Y-92063321D01*
X174534093Y-91867732D01*
X174593890Y-91657564D01*
X174614051Y-91440000D01*
X174614051Y-91439999D01*
X174593890Y-91222435D01*
X174534093Y-91012267D01*
X174436703Y-90816683D01*
X174436699Y-90816676D01*
X174423867Y-90799685D01*
X173849804Y-91373748D01*
X173839238Y-91307031D01*
X173778118Y-91187077D01*
X173682923Y-91091882D01*
X173562969Y-91030762D01*
X173496251Y-91020195D01*
X174068072Y-90448373D01*
X173957778Y-90380081D01*
X173957776Y-90380080D01*
X173754029Y-90301149D01*
X173754021Y-90301147D01*
X173705847Y-90292141D01*
X173643567Y-90260472D01*
X173608295Y-90200160D01*
X173611229Y-90130352D01*
X173651439Y-90073212D01*
X173705846Y-90048365D01*
X173754168Y-90039333D01*
X173958001Y-89960368D01*
X174143853Y-89845294D01*
X174305395Y-89698028D01*
X174437127Y-89523587D01*
X174534563Y-89327910D01*
X174594384Y-89117661D01*
X174614553Y-88900000D01*
X174612043Y-88872917D01*
X174594384Y-88682339D01*
X174594383Y-88682337D01*
X174589335Y-88664596D01*
X174534563Y-88472090D01*
X174516764Y-88436344D01*
X174437130Y-88276418D01*
X174437125Y-88276410D01*
X174305395Y-88101972D01*
X174224907Y-88028597D01*
X174143853Y-87954706D01*
X174143850Y-87954704D01*
X174143849Y-87954703D01*
X173958004Y-87839633D01*
X173957998Y-87839630D01*
X173797351Y-87777396D01*
X173754168Y-87760667D01*
X173707204Y-87751887D01*
X173644926Y-87720221D01*
X173609653Y-87659908D01*
X173612587Y-87590100D01*
X173652796Y-87532960D01*
X173707204Y-87508112D01*
X173754168Y-87499333D01*
X173958001Y-87420368D01*
X174143853Y-87305294D01*
X174305395Y-87158028D01*
X174437127Y-86983587D01*
X174534563Y-86787910D01*
X174594384Y-86577661D01*
X174614553Y-86360000D01*
X174594384Y-86142339D01*
X174534563Y-85932090D01*
X174516764Y-85896344D01*
X174437130Y-85736418D01*
X174437125Y-85736410D01*
X174305395Y-85561972D01*
X174224907Y-85488597D01*
X174143853Y-85414706D01*
X174143850Y-85414704D01*
X174143849Y-85414703D01*
X173958004Y-85299633D01*
X173957998Y-85299630D01*
X173797351Y-85237396D01*
X173754168Y-85220667D01*
X173707204Y-85211887D01*
X173644926Y-85180221D01*
X173609653Y-85119908D01*
X173612587Y-85050100D01*
X173652796Y-84992960D01*
X173707204Y-84968112D01*
X173754168Y-84959333D01*
X173958001Y-84880368D01*
X174143853Y-84765294D01*
X174305395Y-84618028D01*
X174437127Y-84443587D01*
X174534563Y-84247910D01*
X174594384Y-84037661D01*
X174614553Y-83820000D01*
X174594384Y-83602339D01*
X174534563Y-83392090D01*
X174516764Y-83356344D01*
X174437130Y-83196418D01*
X174437125Y-83196410D01*
X174305395Y-83021972D01*
X174224907Y-82948597D01*
X174143853Y-82874706D01*
X174143850Y-82874704D01*
X174143849Y-82874703D01*
X173958004Y-82759633D01*
X173957998Y-82759630D01*
X173797351Y-82697396D01*
X173754168Y-82680667D01*
X173707204Y-82671887D01*
X173644926Y-82640221D01*
X173609653Y-82579908D01*
X173612587Y-82510100D01*
X173652796Y-82452960D01*
X173707204Y-82428112D01*
X173754168Y-82419333D01*
X173958001Y-82340368D01*
X174143853Y-82225294D01*
X174305395Y-82078028D01*
X174437127Y-81903587D01*
X174534563Y-81707910D01*
X174594384Y-81497661D01*
X174614553Y-81280000D01*
X174594384Y-81062339D01*
X174534563Y-80852090D01*
X174516764Y-80816344D01*
X174437130Y-80656418D01*
X174437125Y-80656410D01*
X174305395Y-80481972D01*
X174224907Y-80408597D01*
X174143853Y-80334706D01*
X174143850Y-80334704D01*
X174143849Y-80334703D01*
X173958004Y-80219633D01*
X173957998Y-80219630D01*
X173797351Y-80157396D01*
X173754168Y-80140667D01*
X173707204Y-80131887D01*
X173644926Y-80100221D01*
X173609653Y-80039908D01*
X173612587Y-79970100D01*
X173652796Y-79912960D01*
X173707204Y-79888112D01*
X173754168Y-79879333D01*
X173958001Y-79800368D01*
X174143853Y-79685294D01*
X174305395Y-79538028D01*
X174437127Y-79363587D01*
X174534563Y-79167910D01*
X174594384Y-78957661D01*
X174614553Y-78740000D01*
X174594384Y-78522339D01*
X174534563Y-78312090D01*
X174516764Y-78276344D01*
X174437130Y-78116418D01*
X174437125Y-78116410D01*
X174305395Y-77941972D01*
X174224909Y-77868599D01*
X174143853Y-77794706D01*
X174143850Y-77794704D01*
X174143849Y-77794703D01*
X173958004Y-77679633D01*
X173957998Y-77679630D01*
X173792867Y-77615659D01*
X173754168Y-77600667D01*
X173707204Y-77591887D01*
X173644926Y-77560221D01*
X173609653Y-77499908D01*
X173612587Y-77430100D01*
X173652796Y-77372960D01*
X173707204Y-77348112D01*
X173754168Y-77339333D01*
X173958001Y-77260368D01*
X174143853Y-77145294D01*
X174305395Y-76998028D01*
X174437127Y-76823587D01*
X174534563Y-76627910D01*
X174594384Y-76417661D01*
X174614553Y-76200000D01*
X174594384Y-75982339D01*
X174534563Y-75772090D01*
X174534558Y-75772079D01*
X174437130Y-75576418D01*
X174437125Y-75576410D01*
X174305395Y-75401972D01*
X174305394Y-75401971D01*
X174143853Y-75254706D01*
X174143850Y-75254704D01*
X174143849Y-75254703D01*
X173958004Y-75139633D01*
X173957998Y-75139630D01*
X173796850Y-75077202D01*
X173754168Y-75060667D01*
X173539297Y-75020500D01*
X173320703Y-75020500D01*
X173105832Y-75060667D01*
X173105829Y-75060667D01*
X173105829Y-75060668D01*
X172902001Y-75139630D01*
X172901995Y-75139633D01*
X172716150Y-75254703D01*
X172554604Y-75401972D01*
X172422874Y-75576410D01*
X172422869Y-75576418D01*
X172325441Y-75772079D01*
X172325435Y-75772094D01*
X172265616Y-75982337D01*
X172265615Y-75982339D01*
X172245447Y-76199999D01*
X172245447Y-76200000D01*
X172265615Y-76417660D01*
X172265616Y-76417662D01*
X172325435Y-76627905D01*
X172325441Y-76627920D01*
X172422869Y-76823581D01*
X172422874Y-76823589D01*
X172554604Y-76998027D01*
X172554605Y-76998028D01*
X172716147Y-77145294D01*
X172716149Y-77145295D01*
X172716150Y-77145296D01*
X172901995Y-77260366D01*
X172902001Y-77260369D01*
X172969943Y-77286689D01*
X173105832Y-77339333D01*
X173152795Y-77348112D01*
X173215073Y-77379780D01*
X173250346Y-77440092D01*
X173247412Y-77509900D01*
X173207203Y-77567040D01*
X173152795Y-77591887D01*
X173105832Y-77600667D01*
X173105830Y-77600667D01*
X173105828Y-77600668D01*
X172902001Y-77679630D01*
X172901995Y-77679633D01*
X172716150Y-77794703D01*
X172554604Y-77941972D01*
X172422874Y-78116410D01*
X172422869Y-78116418D01*
X172325441Y-78312079D01*
X172325435Y-78312094D01*
X172265616Y-78522337D01*
X172265615Y-78522339D01*
X172245447Y-78739999D01*
X172245447Y-78740000D01*
X172265615Y-78957660D01*
X172265616Y-78957662D01*
X172325435Y-79167905D01*
X172325441Y-79167920D01*
X172422869Y-79363581D01*
X172422874Y-79363589D01*
X172554604Y-79538027D01*
X172554605Y-79538028D01*
X172716147Y-79685294D01*
X172716149Y-79685295D01*
X172716150Y-79685296D01*
X172901995Y-79800366D01*
X172902001Y-79800369D01*
X172969943Y-79826689D01*
X173105832Y-79879333D01*
X173152795Y-79888112D01*
X173215073Y-79919780D01*
X173250346Y-79980092D01*
X173247412Y-80049900D01*
X173207203Y-80107040D01*
X173152795Y-80131887D01*
X173105832Y-80140667D01*
X173105830Y-80140667D01*
X173105828Y-80140668D01*
X172902001Y-80219630D01*
X172901995Y-80219633D01*
X172716150Y-80334703D01*
X172554604Y-80481972D01*
X172422874Y-80656410D01*
X172422869Y-80656418D01*
X172325441Y-80852079D01*
X172325435Y-80852094D01*
X172265616Y-81062337D01*
X172265615Y-81062339D01*
X172245447Y-81279999D01*
X172245447Y-81280000D01*
X172265615Y-81497660D01*
X172265616Y-81497662D01*
X172325435Y-81707905D01*
X172325441Y-81707920D01*
X172422869Y-81903581D01*
X172422874Y-81903589D01*
X172554604Y-82078027D01*
X172554605Y-82078028D01*
X172716147Y-82225294D01*
X172716149Y-82225295D01*
X172716150Y-82225296D01*
X172901995Y-82340366D01*
X172902001Y-82340369D01*
X172969943Y-82366689D01*
X173105832Y-82419333D01*
X173152795Y-82428112D01*
X173215073Y-82459780D01*
X173250346Y-82520092D01*
X173247412Y-82589900D01*
X173207203Y-82647040D01*
X173152795Y-82671887D01*
X173105832Y-82680667D01*
X173105830Y-82680667D01*
X173105828Y-82680668D01*
X172902001Y-82759630D01*
X172901995Y-82759633D01*
X172716150Y-82874703D01*
X172554604Y-83021972D01*
X172422874Y-83196410D01*
X172422869Y-83196418D01*
X172325441Y-83392079D01*
X172325435Y-83392094D01*
X172265616Y-83602337D01*
X172265615Y-83602339D01*
X172245447Y-83819999D01*
X172245447Y-83820000D01*
X172265615Y-84037660D01*
X172265616Y-84037662D01*
X172325435Y-84247905D01*
X172325441Y-84247920D01*
X172422869Y-84443581D01*
X172422874Y-84443589D01*
X172554604Y-84618027D01*
X172554605Y-84618028D01*
X172716147Y-84765294D01*
X172716149Y-84765295D01*
X172716150Y-84765296D01*
X172901995Y-84880366D01*
X172902001Y-84880369D01*
X172969943Y-84906689D01*
X173105832Y-84959333D01*
X173152795Y-84968112D01*
X173215073Y-84999780D01*
X173250346Y-85060092D01*
X173247412Y-85129900D01*
X173207203Y-85187040D01*
X173152795Y-85211887D01*
X173105832Y-85220667D01*
X173105830Y-85220667D01*
X173105828Y-85220668D01*
X172902001Y-85299630D01*
X172901995Y-85299633D01*
X172716150Y-85414703D01*
X172554604Y-85561972D01*
X172422874Y-85736410D01*
X172422869Y-85736418D01*
X172325441Y-85932079D01*
X172325435Y-85932094D01*
X172265616Y-86142337D01*
X172265615Y-86142339D01*
X172245447Y-86359999D01*
X172245447Y-86360000D01*
X172265615Y-86577660D01*
X172265616Y-86577662D01*
X172325435Y-86787905D01*
X172325441Y-86787920D01*
X172422869Y-86983581D01*
X172422874Y-86983589D01*
X172554604Y-87158027D01*
X172554605Y-87158028D01*
X172716147Y-87305294D01*
X172716149Y-87305295D01*
X172716150Y-87305296D01*
X172901995Y-87420366D01*
X172902001Y-87420369D01*
X172969943Y-87446689D01*
X173105832Y-87499333D01*
X173152795Y-87508112D01*
X173215073Y-87539780D01*
X173250346Y-87600092D01*
X173247412Y-87669900D01*
X173207203Y-87727040D01*
X173152795Y-87751887D01*
X173105832Y-87760667D01*
X173105830Y-87760667D01*
X173105828Y-87760668D01*
X172902001Y-87839630D01*
X172901995Y-87839633D01*
X172716150Y-87954703D01*
X172554604Y-88101972D01*
X172422874Y-88276410D01*
X172422869Y-88276418D01*
X172325441Y-88472079D01*
X172325435Y-88472094D01*
X172265616Y-88682337D01*
X172265615Y-88682339D01*
X172245447Y-88899999D01*
X172245447Y-88900000D01*
X172265615Y-89117660D01*
X172265616Y-89117662D01*
X172325435Y-89327905D01*
X172325441Y-89327920D01*
X172422869Y-89523581D01*
X172422874Y-89523589D01*
X172554604Y-89698027D01*
X172554605Y-89698028D01*
X172716147Y-89845294D01*
X172716149Y-89845295D01*
X172716150Y-89845296D01*
X172901995Y-89960366D01*
X172902001Y-89960369D01*
X173105829Y-90039332D01*
X173105832Y-90039333D01*
X173154152Y-90048365D01*
X173216430Y-90080031D01*
X173251704Y-90140343D01*
X173248771Y-90210151D01*
X173208562Y-90267292D01*
X173154152Y-90292141D01*
X173105978Y-90301147D01*
X173105970Y-90301149D01*
X172902225Y-90380080D01*
X172902219Y-90380082D01*
X172791927Y-90448372D01*
X172791926Y-90448373D01*
X173363748Y-91020194D01*
X173297031Y-91030762D01*
X173177077Y-91091882D01*
X173081882Y-91187077D01*
X173020762Y-91307031D01*
X173010195Y-91373749D01*
X172436131Y-90799685D01*
X172436130Y-90799685D01*
X172423300Y-90816676D01*
X172325906Y-91012267D01*
X172266109Y-91222435D01*
X172245949Y-91439999D01*
X172245949Y-91440000D01*
X172266109Y-91657564D01*
X172325906Y-91867732D01*
X172423296Y-92063317D01*
X172423301Y-92063325D01*
X172436131Y-92080314D01*
X173010195Y-91506250D01*
X173020762Y-91572969D01*
X173081882Y-91692923D01*
X173177077Y-91788118D01*
X173297031Y-91849238D01*
X173363747Y-91859804D01*
X172791926Y-92431625D01*
X172902218Y-92499916D01*
X173105971Y-92578850D01*
X173154150Y-92587857D01*
X173216431Y-92619525D01*
X173251704Y-92679838D01*
X173248770Y-92749646D01*
X173208561Y-92806786D01*
X173154151Y-92831634D01*
X173105833Y-92840666D01*
X172902001Y-92919630D01*
X172901995Y-92919633D01*
X172716150Y-93034703D01*
X172554604Y-93181972D01*
X172422874Y-93356410D01*
X172422869Y-93356418D01*
X172325441Y-93552079D01*
X172325435Y-93552094D01*
X172265616Y-93762337D01*
X172265615Y-93762339D01*
X172245447Y-93979999D01*
X172245447Y-93980000D01*
X172265615Y-94197660D01*
X172265616Y-94197662D01*
X172325435Y-94407905D01*
X172325441Y-94407920D01*
X172422869Y-94603581D01*
X172422874Y-94603589D01*
X172554604Y-94778027D01*
X172554605Y-94778028D01*
X172716147Y-94925294D01*
X172716149Y-94925295D01*
X172716150Y-94925296D01*
X172901995Y-95040366D01*
X172902001Y-95040369D01*
X172969943Y-95066689D01*
X173105832Y-95119333D01*
X173152795Y-95128112D01*
X173215073Y-95159780D01*
X173250346Y-95220092D01*
X173247412Y-95289900D01*
X173207203Y-95347040D01*
X173152795Y-95371887D01*
X173105832Y-95380667D01*
X173105830Y-95380667D01*
X173105828Y-95380668D01*
X172902001Y-95459630D01*
X172901995Y-95459633D01*
X172716150Y-95574703D01*
X172554604Y-95721972D01*
X172461527Y-95845227D01*
X172405418Y-95886863D01*
X172362573Y-95894500D01*
X171200452Y-95894500D01*
X171133413Y-95874815D01*
X171112771Y-95858181D01*
X166726208Y-91471617D01*
X166692723Y-91410294D01*
X166690418Y-91395377D01*
X166687891Y-91368111D01*
X166674384Y-91222339D01*
X166614563Y-91012090D01*
X166596764Y-90976344D01*
X166517130Y-90816418D01*
X166517125Y-90816410D01*
X166385395Y-90641972D01*
X166304907Y-90568597D01*
X166223853Y-90494706D01*
X166223850Y-90494704D01*
X166223849Y-90494703D01*
X166038004Y-90379633D01*
X166037998Y-90379630D01*
X165835412Y-90301149D01*
X165834168Y-90300667D01*
X165787204Y-90291887D01*
X165724926Y-90260221D01*
X165689653Y-90199908D01*
X165692587Y-90130100D01*
X165732796Y-90072960D01*
X165787204Y-90048112D01*
X165834168Y-90039333D01*
X166038001Y-89960368D01*
X166223853Y-89845294D01*
X166385395Y-89698028D01*
X166517127Y-89523587D01*
X166614563Y-89327910D01*
X166674384Y-89117661D01*
X166694553Y-88900000D01*
X166692043Y-88872917D01*
X166674384Y-88682339D01*
X166674383Y-88682337D01*
X166669335Y-88664596D01*
X166614563Y-88472090D01*
X166596764Y-88436344D01*
X166517130Y-88276418D01*
X166517125Y-88276410D01*
X166385395Y-88101972D01*
X166304907Y-88028597D01*
X166223853Y-87954706D01*
X166223850Y-87954704D01*
X166223849Y-87954703D01*
X166038004Y-87839633D01*
X166037998Y-87839630D01*
X165877351Y-87777396D01*
X165834168Y-87760667D01*
X165787204Y-87751887D01*
X165724926Y-87720221D01*
X165689653Y-87659908D01*
X165692587Y-87590100D01*
X165732796Y-87532960D01*
X165787204Y-87508112D01*
X165834168Y-87499333D01*
X166038001Y-87420368D01*
X166223853Y-87305294D01*
X166385395Y-87158028D01*
X166517127Y-86983587D01*
X166614563Y-86787910D01*
X166674384Y-86577661D01*
X166694553Y-86360000D01*
X166674384Y-86142339D01*
X166614563Y-85932090D01*
X166596764Y-85896344D01*
X166517130Y-85736418D01*
X166517125Y-85736410D01*
X166385395Y-85561972D01*
X166304907Y-85488597D01*
X166223853Y-85414706D01*
X166223850Y-85414704D01*
X166223849Y-85414703D01*
X166038004Y-85299633D01*
X166037998Y-85299630D01*
X165877351Y-85237396D01*
X165834168Y-85220667D01*
X165787204Y-85211887D01*
X165724926Y-85180221D01*
X165689653Y-85119908D01*
X165692587Y-85050100D01*
X165732796Y-84992960D01*
X165787204Y-84968112D01*
X165834168Y-84959333D01*
X166038001Y-84880368D01*
X166223853Y-84765294D01*
X166385395Y-84618028D01*
X166517127Y-84443587D01*
X166614563Y-84247910D01*
X166674384Y-84037661D01*
X166694553Y-83820000D01*
X166674384Y-83602339D01*
X166614563Y-83392090D01*
X166596764Y-83356344D01*
X166517130Y-83196418D01*
X166517125Y-83196410D01*
X166385395Y-83021972D01*
X166304907Y-82948597D01*
X166223853Y-82874706D01*
X166223850Y-82874704D01*
X166223849Y-82874703D01*
X166038004Y-82759633D01*
X166037998Y-82759630D01*
X165877351Y-82697396D01*
X165834168Y-82680667D01*
X165787204Y-82671887D01*
X165724926Y-82640221D01*
X165689653Y-82579908D01*
X165692587Y-82510100D01*
X165732796Y-82452960D01*
X165787204Y-82428112D01*
X165834168Y-82419333D01*
X166038001Y-82340368D01*
X166223853Y-82225294D01*
X166385395Y-82078028D01*
X166517127Y-81903587D01*
X166614563Y-81707910D01*
X166674384Y-81497661D01*
X166694553Y-81280000D01*
X166674384Y-81062339D01*
X166614563Y-80852090D01*
X166596764Y-80816344D01*
X166517130Y-80656418D01*
X166517125Y-80656410D01*
X166385395Y-80481972D01*
X166304907Y-80408597D01*
X166223853Y-80334706D01*
X166223850Y-80334704D01*
X166223849Y-80334703D01*
X166038004Y-80219633D01*
X166037998Y-80219630D01*
X165877351Y-80157396D01*
X165834168Y-80140667D01*
X165787204Y-80131887D01*
X165724926Y-80100221D01*
X165689653Y-80039908D01*
X165692587Y-79970100D01*
X165732796Y-79912960D01*
X165787204Y-79888112D01*
X165834168Y-79879333D01*
X166038001Y-79800368D01*
X166223853Y-79685294D01*
X166385395Y-79538028D01*
X166517127Y-79363587D01*
X166614563Y-79167910D01*
X166674384Y-78957661D01*
X166694553Y-78740000D01*
X166674384Y-78522339D01*
X166614563Y-78312090D01*
X166596764Y-78276344D01*
X166517130Y-78116418D01*
X166517125Y-78116410D01*
X166385395Y-77941972D01*
X166304909Y-77868599D01*
X166223853Y-77794706D01*
X166223850Y-77794704D01*
X166223849Y-77794703D01*
X166038004Y-77679633D01*
X166037998Y-77679630D01*
X165881816Y-77619126D01*
X165826415Y-77576553D01*
X165802824Y-77510786D01*
X165818535Y-77442706D01*
X165868559Y-77393927D01*
X165926609Y-77379499D01*
X166236872Y-77379499D01*
X166296483Y-77373091D01*
X166431331Y-77322796D01*
X166546546Y-77236546D01*
X166632796Y-77121331D01*
X166683091Y-76986483D01*
X166689500Y-76926873D01*
X166689499Y-75473128D01*
X166683091Y-75413517D01*
X166641548Y-75302135D01*
X166632797Y-75278671D01*
X166632793Y-75278664D01*
X166546547Y-75163455D01*
X166546544Y-75163452D01*
X166431335Y-75077206D01*
X166431328Y-75077202D01*
X166296482Y-75026908D01*
X166296483Y-75026908D01*
X166236883Y-75020501D01*
X166236881Y-75020500D01*
X166236873Y-75020500D01*
X166236864Y-75020500D01*
X164783129Y-75020500D01*
X164783123Y-75020501D01*
X164723516Y-75026908D01*
X164588671Y-75077202D01*
X164588664Y-75077206D01*
X164473455Y-75163452D01*
X164473452Y-75163455D01*
X164387206Y-75278664D01*
X164387202Y-75278671D01*
X164336908Y-75413517D01*
X164330501Y-75473116D01*
X164330501Y-75473123D01*
X164330500Y-75473135D01*
X164330500Y-76926870D01*
X164330501Y-76926876D01*
X164336908Y-76986483D01*
X164387202Y-77121328D01*
X164387206Y-77121335D01*
X164473452Y-77236544D01*
X164473455Y-77236547D01*
X164588664Y-77322793D01*
X164588671Y-77322797D01*
X164723517Y-77373091D01*
X164723516Y-77373091D01*
X164730444Y-77373835D01*
X164783127Y-77379500D01*
X165093389Y-77379499D01*
X165160426Y-77399183D01*
X165206181Y-77451987D01*
X165216125Y-77521146D01*
X165187100Y-77584701D01*
X165138181Y-77619125D01*
X164982010Y-77679626D01*
X164981995Y-77679633D01*
X164796150Y-77794703D01*
X164634604Y-77941972D01*
X164502874Y-78116410D01*
X164502869Y-78116418D01*
X164405441Y-78312079D01*
X164405435Y-78312094D01*
X164345616Y-78522337D01*
X164345615Y-78522339D01*
X164325447Y-78739999D01*
X164325447Y-78740000D01*
X164345615Y-78957660D01*
X164345616Y-78957662D01*
X164405435Y-79167905D01*
X164405441Y-79167920D01*
X164502869Y-79363581D01*
X164502874Y-79363589D01*
X164634604Y-79538027D01*
X164634605Y-79538028D01*
X164796147Y-79685294D01*
X164796149Y-79685295D01*
X164796150Y-79685296D01*
X164981995Y-79800366D01*
X164982001Y-79800369D01*
X165049943Y-79826689D01*
X165185832Y-79879333D01*
X165232795Y-79888112D01*
X165295073Y-79919780D01*
X165330346Y-79980092D01*
X165327412Y-80049900D01*
X165287203Y-80107040D01*
X165232795Y-80131887D01*
X165185832Y-80140667D01*
X165185830Y-80140667D01*
X165185828Y-80140668D01*
X164982001Y-80219630D01*
X164981995Y-80219633D01*
X164796150Y-80334703D01*
X164634604Y-80481972D01*
X164502874Y-80656410D01*
X164502869Y-80656418D01*
X164405441Y-80852079D01*
X164405435Y-80852094D01*
X164345616Y-81062337D01*
X164345615Y-81062339D01*
X164325447Y-81279999D01*
X164325447Y-81280000D01*
X164345615Y-81497660D01*
X164345616Y-81497662D01*
X164405435Y-81707905D01*
X164405441Y-81707920D01*
X164502869Y-81903581D01*
X164502874Y-81903589D01*
X164634604Y-82078027D01*
X164634605Y-82078028D01*
X164796147Y-82225294D01*
X164796149Y-82225295D01*
X164796150Y-82225296D01*
X164981995Y-82340366D01*
X164982001Y-82340369D01*
X165049943Y-82366689D01*
X165185832Y-82419333D01*
X165232795Y-82428112D01*
X165295073Y-82459780D01*
X165330346Y-82520092D01*
X165327412Y-82589900D01*
X165287203Y-82647040D01*
X165232795Y-82671887D01*
X165185832Y-82680667D01*
X165185830Y-82680667D01*
X165185828Y-82680668D01*
X164982001Y-82759630D01*
X164981995Y-82759633D01*
X164796150Y-82874703D01*
X164634604Y-83021972D01*
X164502874Y-83196410D01*
X164502869Y-83196418D01*
X164405441Y-83392079D01*
X164405435Y-83392094D01*
X164345616Y-83602337D01*
X164345615Y-83602339D01*
X164325447Y-83819999D01*
X164325447Y-83820000D01*
X164345615Y-84037660D01*
X164345616Y-84037662D01*
X164405435Y-84247905D01*
X164405441Y-84247920D01*
X164502869Y-84443581D01*
X164502874Y-84443589D01*
X164634604Y-84618027D01*
X164634605Y-84618028D01*
X164796147Y-84765294D01*
X164796149Y-84765295D01*
X164796150Y-84765296D01*
X164981995Y-84880366D01*
X164982001Y-84880369D01*
X165049943Y-84906689D01*
X165185832Y-84959333D01*
X165232795Y-84968112D01*
X165295073Y-84999780D01*
X165330346Y-85060092D01*
X165327412Y-85129900D01*
X165287203Y-85187040D01*
X165232795Y-85211887D01*
X165185832Y-85220667D01*
X165185830Y-85220667D01*
X165185828Y-85220668D01*
X164982001Y-85299630D01*
X164981995Y-85299633D01*
X164796150Y-85414703D01*
X164634604Y-85561972D01*
X164502874Y-85736410D01*
X164502869Y-85736418D01*
X164405441Y-85932079D01*
X164405435Y-85932094D01*
X164345616Y-86142337D01*
X164345615Y-86142339D01*
X164325447Y-86359999D01*
X164325447Y-86360000D01*
X164345615Y-86577660D01*
X164345616Y-86577662D01*
X164405435Y-86787905D01*
X164405441Y-86787920D01*
X164502869Y-86983581D01*
X164502874Y-86983589D01*
X164634604Y-87158027D01*
X164634605Y-87158028D01*
X164796147Y-87305294D01*
X164796149Y-87305295D01*
X164796150Y-87305296D01*
X164981995Y-87420366D01*
X164982001Y-87420369D01*
X165049943Y-87446689D01*
X165185832Y-87499333D01*
X165232795Y-87508112D01*
X165295073Y-87539780D01*
X165330346Y-87600092D01*
X165327412Y-87669900D01*
X165287203Y-87727040D01*
X165232795Y-87751887D01*
X165185832Y-87760667D01*
X165185830Y-87760667D01*
X165185828Y-87760668D01*
X164982001Y-87839630D01*
X164981995Y-87839633D01*
X164796150Y-87954703D01*
X164634604Y-88101972D01*
X164502874Y-88276410D01*
X164502869Y-88276418D01*
X164405441Y-88472079D01*
X164405435Y-88472094D01*
X164345616Y-88682337D01*
X164345615Y-88682339D01*
X164325447Y-88899999D01*
X164325447Y-88900000D01*
X164345615Y-89117660D01*
X164345616Y-89117662D01*
X164405435Y-89327905D01*
X164405441Y-89327920D01*
X164502869Y-89523581D01*
X164502874Y-89523589D01*
X164634604Y-89698027D01*
X164634605Y-89698028D01*
X164796147Y-89845294D01*
X164796149Y-89845295D01*
X164796150Y-89845296D01*
X164981995Y-89960366D01*
X164982001Y-89960369D01*
X165049943Y-89986689D01*
X165185832Y-90039333D01*
X165232795Y-90048112D01*
X165295073Y-90079780D01*
X165330346Y-90140092D01*
X165327412Y-90209900D01*
X165287203Y-90267040D01*
X165232795Y-90291887D01*
X165185832Y-90300667D01*
X165185830Y-90300667D01*
X165185828Y-90300668D01*
X164982001Y-90379630D01*
X164981995Y-90379633D01*
X164796150Y-90494703D01*
X164634604Y-90641972D01*
X164541527Y-90765227D01*
X164485418Y-90806863D01*
X164442573Y-90814500D01*
X162239452Y-90814500D01*
X162172413Y-90794815D01*
X162126658Y-90742011D01*
X162116714Y-90672853D01*
X162145739Y-90609297D01*
X162151771Y-90602819D01*
X162519527Y-90235063D01*
X163653786Y-89100802D01*
X163666048Y-89090980D01*
X163665865Y-89090759D01*
X163671873Y-89085788D01*
X163671877Y-89085786D01*
X163718649Y-89035977D01*
X163719891Y-89034697D01*
X163740120Y-89014470D01*
X163744373Y-89008986D01*
X163748150Y-89004563D01*
X163780062Y-88970582D01*
X163789714Y-88953023D01*
X163800389Y-88936772D01*
X163812674Y-88920936D01*
X163831186Y-88878152D01*
X163833742Y-88872935D01*
X163856197Y-88832092D01*
X163861180Y-88812680D01*
X163867477Y-88794291D01*
X163875438Y-88775895D01*
X163882729Y-88729853D01*
X163883908Y-88724162D01*
X163895500Y-88679019D01*
X163895500Y-88658974D01*
X163897025Y-88639591D01*
X163900160Y-88619804D01*
X163895775Y-88573415D01*
X163895500Y-88567577D01*
X163895500Y-74402742D01*
X163897224Y-74387122D01*
X163896939Y-74387095D01*
X163897673Y-74379333D01*
X163895531Y-74311139D01*
X163895500Y-74309192D01*
X163895500Y-74280656D01*
X163895500Y-74280650D01*
X163894631Y-74273779D01*
X163894173Y-74267952D01*
X163892710Y-74221373D01*
X163887119Y-74202130D01*
X163883173Y-74183078D01*
X163880664Y-74163208D01*
X163863504Y-74119867D01*
X163861624Y-74114379D01*
X163848618Y-74069610D01*
X163838422Y-74052370D01*
X163829861Y-74034894D01*
X163822487Y-74016270D01*
X163822486Y-74016268D01*
X163795079Y-73978545D01*
X163791888Y-73973686D01*
X163768172Y-73933583D01*
X163768165Y-73933574D01*
X163754006Y-73919415D01*
X163741368Y-73904619D01*
X163729594Y-73888413D01*
X163693688Y-73858709D01*
X163689376Y-73854786D01*
X161390237Y-71555646D01*
X161356752Y-71494323D01*
X161358142Y-71435876D01*
X161385063Y-71335408D01*
X161405659Y-71100000D01*
X161403710Y-71077729D01*
X161398302Y-71015915D01*
X161385063Y-70864592D01*
X161375796Y-70830005D01*
X163594859Y-70830005D01*
X163615385Y-71077729D01*
X163615387Y-71077738D01*
X163676412Y-71318717D01*
X163776266Y-71546364D01*
X163876564Y-71699882D01*
X164574070Y-71002376D01*
X164576884Y-71015915D01*
X164646442Y-71150156D01*
X164749638Y-71260652D01*
X164878819Y-71339209D01*
X164930002Y-71353549D01*
X164229942Y-72053609D01*
X164276768Y-72090055D01*
X164276770Y-72090056D01*
X164495385Y-72208364D01*
X164495396Y-72208369D01*
X164730506Y-72289083D01*
X164975707Y-72330000D01*
X165224293Y-72330000D01*
X165469493Y-72289083D01*
X165704603Y-72208369D01*
X165704614Y-72208364D01*
X165923228Y-72090057D01*
X165923231Y-72090055D01*
X165970056Y-72053609D01*
X165271568Y-71355121D01*
X165388458Y-71304349D01*
X165505739Y-71208934D01*
X165592928Y-71085415D01*
X165623354Y-70999802D01*
X166323434Y-71699882D01*
X166423731Y-71546369D01*
X166523587Y-71318717D01*
X166584612Y-71077738D01*
X166584614Y-71077729D01*
X166605141Y-70830005D01*
X170094859Y-70830005D01*
X170115385Y-71077729D01*
X170115387Y-71077738D01*
X170176412Y-71318717D01*
X170276266Y-71546364D01*
X170376564Y-71699882D01*
X171074070Y-71002376D01*
X171076884Y-71015915D01*
X171146442Y-71150156D01*
X171249638Y-71260652D01*
X171378819Y-71339209D01*
X171430002Y-71353549D01*
X170729942Y-72053609D01*
X170776768Y-72090055D01*
X170776770Y-72090056D01*
X170995385Y-72208364D01*
X170995396Y-72208369D01*
X171230506Y-72289083D01*
X171475707Y-72330000D01*
X171724293Y-72330000D01*
X171969493Y-72289083D01*
X172204603Y-72208369D01*
X172204614Y-72208364D01*
X172423228Y-72090057D01*
X172423231Y-72090055D01*
X172470056Y-72053609D01*
X171771568Y-71355121D01*
X171888458Y-71304349D01*
X172005739Y-71208934D01*
X172092928Y-71085415D01*
X172123354Y-70999802D01*
X172823434Y-71699882D01*
X172923731Y-71546369D01*
X173023587Y-71318717D01*
X173073909Y-71120002D01*
X174665034Y-71120002D01*
X174684858Y-71346599D01*
X174684860Y-71346610D01*
X174743730Y-71566317D01*
X174743734Y-71566326D01*
X174839865Y-71772481D01*
X174839866Y-71772483D01*
X174890973Y-71845471D01*
X174890973Y-71845472D01*
X175572046Y-71164399D01*
X175584835Y-71245148D01*
X175642359Y-71358045D01*
X175731955Y-71447641D01*
X175844852Y-71505165D01*
X175925599Y-71517953D01*
X175244526Y-72199025D01*
X175244526Y-72199026D01*
X175317512Y-72250131D01*
X175317516Y-72250133D01*
X175523673Y-72346265D01*
X175523682Y-72346269D01*
X175743389Y-72405139D01*
X175743400Y-72405141D01*
X175969998Y-72424966D01*
X175970002Y-72424966D01*
X176196599Y-72405141D01*
X176196610Y-72405139D01*
X176416317Y-72346269D01*
X176416331Y-72346264D01*
X176622478Y-72250136D01*
X176695472Y-72199025D01*
X176014401Y-71517953D01*
X176095148Y-71505165D01*
X176208045Y-71447641D01*
X176297641Y-71358045D01*
X176355165Y-71245148D01*
X176367953Y-71164400D01*
X177049025Y-71845472D01*
X177100134Y-71772481D01*
X177107340Y-71757028D01*
X177153511Y-71704587D01*
X177220704Y-71685433D01*
X177287585Y-71705646D01*
X177332105Y-71757022D01*
X177339430Y-71772730D01*
X177339432Y-71772734D01*
X177469954Y-71959141D01*
X177630858Y-72120045D01*
X177630861Y-72120047D01*
X177817266Y-72250568D01*
X178023504Y-72346739D01*
X178243308Y-72405635D01*
X178405230Y-72419801D01*
X178469998Y-72425468D01*
X178470000Y-72425468D01*
X178470002Y-72425468D01*
X178526672Y-72420509D01*
X178696692Y-72405635D01*
X178916496Y-72346739D01*
X179122734Y-72250568D01*
X179309139Y-72120047D01*
X179470047Y-71959139D01*
X179600568Y-71772734D01*
X179696739Y-71566496D01*
X179755635Y-71346692D01*
X179775468Y-71120000D01*
X179755635Y-70893308D01*
X179696739Y-70673504D01*
X179600568Y-70467266D01*
X179470047Y-70280861D01*
X179470045Y-70280858D01*
X179309141Y-70119954D01*
X179122734Y-69989432D01*
X179122732Y-69989431D01*
X178916497Y-69893261D01*
X178916488Y-69893258D01*
X178696697Y-69834366D01*
X178696693Y-69834365D01*
X178696692Y-69834365D01*
X178696691Y-69834364D01*
X178696686Y-69834364D01*
X178470002Y-69814532D01*
X178469998Y-69814532D01*
X178243313Y-69834364D01*
X178243302Y-69834366D01*
X178023511Y-69893258D01*
X178023502Y-69893261D01*
X177817267Y-69989431D01*
X177817265Y-69989432D01*
X177630858Y-70119954D01*
X177469954Y-70280858D01*
X177339432Y-70467265D01*
X177339430Y-70467269D01*
X177332105Y-70482978D01*
X177285931Y-70535417D01*
X177218737Y-70554567D01*
X177151857Y-70534350D01*
X177107341Y-70482974D01*
X177100132Y-70467515D01*
X177100131Y-70467512D01*
X177049026Y-70394526D01*
X177049025Y-70394526D01*
X176367953Y-71075598D01*
X176355165Y-70994852D01*
X176297641Y-70881955D01*
X176208045Y-70792359D01*
X176095148Y-70734835D01*
X176014400Y-70722046D01*
X176695472Y-70040974D01*
X176695471Y-70040973D01*
X176622483Y-69989866D01*
X176622481Y-69989865D01*
X176416326Y-69893734D01*
X176416317Y-69893730D01*
X176196610Y-69834860D01*
X176196599Y-69834858D01*
X175970002Y-69815034D01*
X175969998Y-69815034D01*
X175743400Y-69834858D01*
X175743389Y-69834860D01*
X175523682Y-69893730D01*
X175523673Y-69893734D01*
X175317513Y-69989868D01*
X175244527Y-70040972D01*
X175244526Y-70040973D01*
X175925600Y-70722046D01*
X175844852Y-70734835D01*
X175731955Y-70792359D01*
X175642359Y-70881955D01*
X175584835Y-70994852D01*
X175572046Y-71075598D01*
X174890973Y-70394526D01*
X174839868Y-70467513D01*
X174743734Y-70673673D01*
X174743730Y-70673682D01*
X174684860Y-70893389D01*
X174684858Y-70893400D01*
X174665034Y-71119997D01*
X174665034Y-71120002D01*
X173073909Y-71120002D01*
X173084612Y-71077738D01*
X173084614Y-71077729D01*
X173105141Y-70830005D01*
X173105141Y-70829994D01*
X173084614Y-70582270D01*
X173084612Y-70582261D01*
X173023587Y-70341282D01*
X172923731Y-70113630D01*
X172823434Y-69960116D01*
X172125929Y-70657622D01*
X172123116Y-70644085D01*
X172053558Y-70509844D01*
X171950362Y-70399348D01*
X171821181Y-70320791D01*
X171769997Y-70306450D01*
X172470057Y-69606390D01*
X172470056Y-69606389D01*
X172423229Y-69569943D01*
X172204614Y-69451635D01*
X172204603Y-69451630D01*
X171969493Y-69370916D01*
X171724293Y-69330000D01*
X171475707Y-69330000D01*
X171230506Y-69370916D01*
X170995396Y-69451630D01*
X170995390Y-69451632D01*
X170776761Y-69569949D01*
X170729942Y-69606388D01*
X170729942Y-69606390D01*
X171428431Y-70304878D01*
X171311542Y-70355651D01*
X171194261Y-70451066D01*
X171107072Y-70574585D01*
X171076645Y-70660197D01*
X170376564Y-69960116D01*
X170276267Y-70113632D01*
X170176412Y-70341282D01*
X170115387Y-70582261D01*
X170115385Y-70582270D01*
X170094859Y-70829994D01*
X170094859Y-70830005D01*
X166605141Y-70830005D01*
X166605141Y-70829994D01*
X166584614Y-70582270D01*
X166584612Y-70582261D01*
X166523587Y-70341282D01*
X166423731Y-70113630D01*
X166323434Y-69960116D01*
X165625929Y-70657622D01*
X165623116Y-70644085D01*
X165553558Y-70509844D01*
X165450362Y-70399348D01*
X165321181Y-70320791D01*
X165269997Y-70306450D01*
X165970057Y-69606390D01*
X165970056Y-69606389D01*
X165923229Y-69569943D01*
X165704614Y-69451635D01*
X165704603Y-69451630D01*
X165469493Y-69370916D01*
X165224293Y-69330000D01*
X164975707Y-69330000D01*
X164730506Y-69370916D01*
X164495396Y-69451630D01*
X164495390Y-69451632D01*
X164276761Y-69569949D01*
X164229942Y-69606388D01*
X164229942Y-69606390D01*
X164928431Y-70304878D01*
X164811542Y-70355651D01*
X164694261Y-70451066D01*
X164607072Y-70574585D01*
X164576645Y-70660197D01*
X163876564Y-69960116D01*
X163776267Y-70113632D01*
X163676412Y-70341282D01*
X163615387Y-70582261D01*
X163615385Y-70582270D01*
X163594859Y-70829994D01*
X163594859Y-70830005D01*
X161375796Y-70830005D01*
X161323903Y-70636337D01*
X161224035Y-70422171D01*
X161208055Y-70399348D01*
X161088494Y-70228597D01*
X160921402Y-70061506D01*
X160921401Y-70061505D01*
X160735405Y-69931269D01*
X160691781Y-69876692D01*
X160684588Y-69807193D01*
X160716110Y-69744839D01*
X160735405Y-69728119D01*
X160921082Y-69598105D01*
X161088105Y-69431082D01*
X161223600Y-69237578D01*
X161323429Y-69023492D01*
X161323432Y-69023486D01*
X161380636Y-68810000D01*
X160483686Y-68810000D01*
X160509493Y-68769844D01*
X160550000Y-68631889D01*
X160550000Y-68488111D01*
X160509493Y-68350156D01*
X160483686Y-68310000D01*
X161380636Y-68310000D01*
X161380635Y-68309999D01*
X161323432Y-68096513D01*
X161323429Y-68096507D01*
X161223600Y-67882422D01*
X161223599Y-67882420D01*
X161088113Y-67688926D01*
X161088108Y-67688920D01*
X160921078Y-67521890D01*
X160735405Y-67391879D01*
X160691780Y-67337302D01*
X160684588Y-67267804D01*
X160716110Y-67205449D01*
X160735406Y-67188730D01*
X160761344Y-67170568D01*
X160921401Y-67058495D01*
X161088495Y-66891401D01*
X161224035Y-66697830D01*
X161323903Y-66483663D01*
X161365075Y-66330005D01*
X163594357Y-66330005D01*
X163614890Y-66577812D01*
X163614892Y-66577824D01*
X163675936Y-66818881D01*
X163775826Y-67046606D01*
X163911833Y-67254782D01*
X163922840Y-67266739D01*
X164080256Y-67437738D01*
X164276491Y-67590474D01*
X164495190Y-67708828D01*
X164730386Y-67789571D01*
X164975665Y-67830500D01*
X165224335Y-67830500D01*
X165469614Y-67789571D01*
X165704810Y-67708828D01*
X165923509Y-67590474D01*
X166119744Y-67437738D01*
X166288164Y-67254785D01*
X166424173Y-67046607D01*
X166524063Y-66818881D01*
X166585108Y-66577821D01*
X166605643Y-66330005D01*
X170094357Y-66330005D01*
X170114890Y-66577812D01*
X170114892Y-66577824D01*
X170175936Y-66818881D01*
X170275826Y-67046606D01*
X170411833Y-67254782D01*
X170422840Y-67266739D01*
X170580256Y-67437738D01*
X170776491Y-67590474D01*
X170995190Y-67708828D01*
X171230386Y-67789571D01*
X171475665Y-67830500D01*
X171724335Y-67830500D01*
X171969614Y-67789571D01*
X172204810Y-67708828D01*
X172423509Y-67590474D01*
X172619744Y-67437738D01*
X172788164Y-67254785D01*
X172924173Y-67046607D01*
X173024063Y-66818881D01*
X173085108Y-66577821D01*
X173105643Y-66330000D01*
X173085108Y-66082179D01*
X173074427Y-66040002D01*
X174665034Y-66040002D01*
X174684858Y-66266599D01*
X174684860Y-66266610D01*
X174743730Y-66486317D01*
X174743734Y-66486326D01*
X174839865Y-66692481D01*
X174839866Y-66692483D01*
X174890973Y-66765471D01*
X174890974Y-66765472D01*
X175572046Y-66084399D01*
X175584835Y-66165148D01*
X175642359Y-66278045D01*
X175731955Y-66367641D01*
X175844852Y-66425165D01*
X175925599Y-66437953D01*
X175244526Y-67119025D01*
X175244526Y-67119026D01*
X175317512Y-67170131D01*
X175317516Y-67170133D01*
X175523673Y-67266265D01*
X175523682Y-67266269D01*
X175743389Y-67325139D01*
X175743400Y-67325141D01*
X175969998Y-67344966D01*
X175970002Y-67344966D01*
X176196599Y-67325141D01*
X176196610Y-67325139D01*
X176416317Y-67266269D01*
X176416331Y-67266264D01*
X176622478Y-67170136D01*
X176695472Y-67119025D01*
X176014401Y-66437953D01*
X176095148Y-66425165D01*
X176208045Y-66367641D01*
X176297641Y-66278045D01*
X176355165Y-66165148D01*
X176367953Y-66084400D01*
X177049025Y-66765472D01*
X177100134Y-66692481D01*
X177107340Y-66677028D01*
X177153511Y-66624587D01*
X177220704Y-66605433D01*
X177287585Y-66625646D01*
X177332105Y-66677022D01*
X177339430Y-66692730D01*
X177339432Y-66692734D01*
X177469954Y-66879141D01*
X177630858Y-67040045D01*
X177630861Y-67040047D01*
X177817266Y-67170568D01*
X178023504Y-67266739D01*
X178023509Y-67266740D01*
X178023511Y-67266741D01*
X178076415Y-67280916D01*
X178243308Y-67325635D01*
X178405230Y-67339801D01*
X178469998Y-67345468D01*
X178470000Y-67345468D01*
X178470002Y-67345468D01*
X178526672Y-67340509D01*
X178696692Y-67325635D01*
X178916496Y-67266739D01*
X179122734Y-67170568D01*
X179309139Y-67040047D01*
X179470047Y-66879139D01*
X179600568Y-66692734D01*
X179696739Y-66486496D01*
X179755635Y-66266692D01*
X179775468Y-66040000D01*
X179755635Y-65813308D01*
X179696739Y-65593504D01*
X179600568Y-65387266D01*
X179470047Y-65200861D01*
X179470045Y-65200858D01*
X179309141Y-65039954D01*
X179122734Y-64909432D01*
X179122732Y-64909431D01*
X178916497Y-64813261D01*
X178916488Y-64813258D01*
X178696697Y-64754366D01*
X178696693Y-64754365D01*
X178696692Y-64754365D01*
X178696691Y-64754364D01*
X178696686Y-64754364D01*
X178470002Y-64734532D01*
X178469998Y-64734532D01*
X178243313Y-64754364D01*
X178243302Y-64754366D01*
X178023511Y-64813258D01*
X178023502Y-64813261D01*
X177817267Y-64909431D01*
X177817265Y-64909432D01*
X177630858Y-65039954D01*
X177469954Y-65200858D01*
X177339432Y-65387265D01*
X177339430Y-65387269D01*
X177332105Y-65402978D01*
X177285931Y-65455417D01*
X177218737Y-65474567D01*
X177151857Y-65454350D01*
X177107341Y-65402974D01*
X177100132Y-65387515D01*
X177100131Y-65387512D01*
X177049026Y-65314526D01*
X177049025Y-65314526D01*
X176367953Y-65995597D01*
X176355165Y-65914852D01*
X176297641Y-65801955D01*
X176208045Y-65712359D01*
X176095148Y-65654835D01*
X176014400Y-65642046D01*
X176695472Y-64960974D01*
X176695471Y-64960973D01*
X176622483Y-64909866D01*
X176622481Y-64909865D01*
X176416326Y-64813734D01*
X176416317Y-64813730D01*
X176196610Y-64754860D01*
X176196599Y-64754858D01*
X175970002Y-64735034D01*
X175969998Y-64735034D01*
X175743400Y-64754858D01*
X175743389Y-64754860D01*
X175523682Y-64813730D01*
X175523673Y-64813734D01*
X175317513Y-64909868D01*
X175244527Y-64960972D01*
X175244526Y-64960973D01*
X175925600Y-65642046D01*
X175844852Y-65654835D01*
X175731955Y-65712359D01*
X175642359Y-65801955D01*
X175584835Y-65914852D01*
X175572046Y-65995599D01*
X174890973Y-65314526D01*
X174890972Y-65314527D01*
X174839868Y-65387513D01*
X174743734Y-65593673D01*
X174743730Y-65593682D01*
X174684860Y-65813389D01*
X174684858Y-65813400D01*
X174665034Y-66039997D01*
X174665034Y-66040002D01*
X173074427Y-66040002D01*
X173024063Y-65841119D01*
X173011904Y-65813400D01*
X172924173Y-65613393D01*
X172788166Y-65405217D01*
X172766557Y-65381744D01*
X172619744Y-65222262D01*
X172423509Y-65069526D01*
X172423507Y-65069525D01*
X172423506Y-65069524D01*
X172204811Y-64951172D01*
X172204802Y-64951169D01*
X171969616Y-64870429D01*
X171724335Y-64829500D01*
X171475665Y-64829500D01*
X171230383Y-64870429D01*
X170995197Y-64951169D01*
X170995188Y-64951172D01*
X170776493Y-65069524D01*
X170580257Y-65222261D01*
X170411833Y-65405217D01*
X170275826Y-65613393D01*
X170175936Y-65841118D01*
X170114892Y-66082175D01*
X170114890Y-66082187D01*
X170094357Y-66329994D01*
X170094357Y-66330005D01*
X166605643Y-66330005D01*
X166605643Y-66330000D01*
X166585108Y-66082179D01*
X166524063Y-65841119D01*
X166511904Y-65813400D01*
X166424173Y-65613393D01*
X166288166Y-65405217D01*
X166266557Y-65381744D01*
X166119744Y-65222262D01*
X165923509Y-65069526D01*
X165923507Y-65069525D01*
X165923506Y-65069524D01*
X165704811Y-64951172D01*
X165704802Y-64951169D01*
X165469616Y-64870429D01*
X165224335Y-64829500D01*
X164975665Y-64829500D01*
X164730383Y-64870429D01*
X164495197Y-64951169D01*
X164495188Y-64951172D01*
X164276493Y-65069524D01*
X164080257Y-65222261D01*
X163911833Y-65405217D01*
X163775826Y-65613393D01*
X163675936Y-65841118D01*
X163614892Y-66082175D01*
X163614890Y-66082187D01*
X163594357Y-66329994D01*
X163594357Y-66330005D01*
X161365075Y-66330005D01*
X161385063Y-66255408D01*
X161405659Y-66020000D01*
X161385063Y-65784592D01*
X161342727Y-65626593D01*
X161344391Y-65556743D01*
X161383554Y-65498881D01*
X161447782Y-65471377D01*
X161462503Y-65470500D01*
X161842257Y-65470500D01*
X161857877Y-65472224D01*
X161857904Y-65471939D01*
X161865666Y-65472673D01*
X161865666Y-65472672D01*
X161865667Y-65472673D01*
X161868999Y-65472568D01*
X161933847Y-65470531D01*
X161935794Y-65470500D01*
X161964347Y-65470500D01*
X161964350Y-65470500D01*
X161971228Y-65469630D01*
X161977041Y-65469172D01*
X162023627Y-65467709D01*
X162042869Y-65462117D01*
X162061912Y-65458174D01*
X162081792Y-65455664D01*
X162125122Y-65438507D01*
X162130646Y-65436617D01*
X162134396Y-65435527D01*
X162175390Y-65423618D01*
X162192629Y-65413422D01*
X162210103Y-65404862D01*
X162228727Y-65397488D01*
X162228727Y-65397487D01*
X162228732Y-65397486D01*
X162266449Y-65370082D01*
X162271305Y-65366892D01*
X162311420Y-65343170D01*
X162325589Y-65328999D01*
X162340379Y-65316368D01*
X162356587Y-65304594D01*
X162386299Y-65268676D01*
X162390212Y-65264376D01*
X165395178Y-62259410D01*
X165456499Y-62225927D01*
X165514946Y-62227317D01*
X165583308Y-62245635D01*
X165740780Y-62259412D01*
X165809998Y-62265468D01*
X165810000Y-62265468D01*
X165810002Y-62265468D01*
X165879220Y-62259412D01*
X166036692Y-62245635D01*
X166256496Y-62186739D01*
X166462734Y-62090568D01*
X166649139Y-61960047D01*
X166810047Y-61799139D01*
X166940568Y-61612734D01*
X167036739Y-61406496D01*
X167095635Y-61186692D01*
X167115468Y-60960001D01*
X174664532Y-60960001D01*
X174684364Y-61186686D01*
X174684366Y-61186697D01*
X174743258Y-61406488D01*
X174743261Y-61406497D01*
X174839431Y-61612732D01*
X174839432Y-61612734D01*
X174969954Y-61799141D01*
X175130858Y-61960045D01*
X175130861Y-61960047D01*
X175317266Y-62090568D01*
X175523504Y-62186739D01*
X175743308Y-62245635D01*
X175900780Y-62259412D01*
X175969998Y-62265468D01*
X175970000Y-62265468D01*
X175970002Y-62265468D01*
X176039220Y-62259412D01*
X176196692Y-62245635D01*
X176416496Y-62186739D01*
X176622734Y-62090568D01*
X176809139Y-61960047D01*
X176970047Y-61799139D01*
X177100568Y-61612734D01*
X177196739Y-61406496D01*
X177255635Y-61186692D01*
X177275468Y-60960000D01*
X178144659Y-60960000D01*
X178163975Y-61156129D01*
X178221188Y-61344733D01*
X178314086Y-61518532D01*
X178314090Y-61518539D01*
X178439116Y-61670883D01*
X178591460Y-61795909D01*
X178591467Y-61795913D01*
X178765266Y-61888811D01*
X178765269Y-61888811D01*
X178765273Y-61888814D01*
X178953868Y-61946024D01*
X179150000Y-61965341D01*
X179346132Y-61946024D01*
X179534727Y-61888814D01*
X179708538Y-61795910D01*
X179860883Y-61670883D01*
X179985910Y-61518538D01*
X179990640Y-61509687D01*
X180039602Y-61459843D01*
X180107739Y-61444381D01*
X180173419Y-61468211D01*
X180209360Y-61509688D01*
X180214091Y-61518539D01*
X180339116Y-61670883D01*
X180491460Y-61795909D01*
X180491467Y-61795913D01*
X180665266Y-61888811D01*
X180665269Y-61888811D01*
X180665273Y-61888814D01*
X180853868Y-61946024D01*
X181050000Y-61965341D01*
X181246132Y-61946024D01*
X181434727Y-61888814D01*
X181608538Y-61795910D01*
X181760883Y-61670883D01*
X181885910Y-61518538D01*
X181945802Y-61406488D01*
X181978811Y-61344733D01*
X181978811Y-61344732D01*
X181978814Y-61344727D01*
X182036024Y-61156132D01*
X182055341Y-60960000D01*
X182036024Y-60763868D01*
X181978814Y-60575273D01*
X181978811Y-60575269D01*
X181978811Y-60575266D01*
X181885913Y-60401467D01*
X181885909Y-60401460D01*
X181760883Y-60249116D01*
X181608539Y-60124090D01*
X181608532Y-60124086D01*
X181434733Y-60031188D01*
X181434727Y-60031186D01*
X181274288Y-59982517D01*
X181246129Y-59973975D01*
X181050000Y-59954659D01*
X180853870Y-59973975D01*
X180665266Y-60031188D01*
X180491467Y-60124086D01*
X180491460Y-60124090D01*
X180339116Y-60249116D01*
X180214090Y-60401460D01*
X180214088Y-60401464D01*
X180209358Y-60410314D01*
X180160395Y-60460158D01*
X180092257Y-60475618D01*
X180026578Y-60451786D01*
X179990642Y-60410314D01*
X179985911Y-60401464D01*
X179985909Y-60401460D01*
X179860883Y-60249116D01*
X179708539Y-60124090D01*
X179708532Y-60124086D01*
X179534733Y-60031188D01*
X179534727Y-60031186D01*
X179374288Y-59982517D01*
X179346129Y-59973975D01*
X179150000Y-59954659D01*
X178953870Y-59973975D01*
X178765266Y-60031188D01*
X178591467Y-60124086D01*
X178591460Y-60124090D01*
X178439116Y-60249116D01*
X178314090Y-60401460D01*
X178314086Y-60401467D01*
X178221188Y-60575266D01*
X178163975Y-60763870D01*
X178144659Y-60960000D01*
X177275468Y-60960000D01*
X177255635Y-60733308D01*
X177196739Y-60513504D01*
X177100568Y-60307266D01*
X176970047Y-60120861D01*
X176970045Y-60120858D01*
X176809141Y-59959954D01*
X176622734Y-59829432D01*
X176622732Y-59829431D01*
X176416497Y-59733261D01*
X176416488Y-59733258D01*
X176196697Y-59674366D01*
X176196693Y-59674365D01*
X176196692Y-59674365D01*
X176196691Y-59674364D01*
X176196686Y-59674364D01*
X175970002Y-59654532D01*
X175969998Y-59654532D01*
X175743313Y-59674364D01*
X175743302Y-59674366D01*
X175523511Y-59733258D01*
X175523502Y-59733261D01*
X175317267Y-59829431D01*
X175317265Y-59829432D01*
X175130858Y-59959954D01*
X174969954Y-60120858D01*
X174839432Y-60307265D01*
X174839431Y-60307267D01*
X174743261Y-60513502D01*
X174743258Y-60513511D01*
X174684366Y-60733302D01*
X174684364Y-60733313D01*
X174664532Y-60959998D01*
X174664532Y-60960001D01*
X167115468Y-60960001D01*
X167115468Y-60960000D01*
X167095635Y-60733308D01*
X167036739Y-60513504D01*
X166940568Y-60307266D01*
X166810047Y-60120861D01*
X166810045Y-60120858D01*
X166649141Y-59959954D01*
X166462734Y-59829432D01*
X166462732Y-59829431D01*
X166256497Y-59733261D01*
X166256488Y-59733258D01*
X166036697Y-59674366D01*
X166036693Y-59674365D01*
X166036692Y-59674365D01*
X166036691Y-59674364D01*
X166036686Y-59674364D01*
X165810002Y-59654532D01*
X165809998Y-59654532D01*
X165583313Y-59674364D01*
X165583302Y-59674366D01*
X165363511Y-59733258D01*
X165363502Y-59733261D01*
X165157267Y-59829431D01*
X165157265Y-59829432D01*
X164970858Y-59959954D01*
X164809954Y-60120858D01*
X164679432Y-60307265D01*
X164679431Y-60307267D01*
X164583261Y-60513502D01*
X164583258Y-60513511D01*
X164524366Y-60733302D01*
X164524364Y-60733313D01*
X164521691Y-60763868D01*
X164504532Y-60960000D01*
X164524364Y-61186686D01*
X164524365Y-61186691D01*
X164524366Y-61186697D01*
X164542680Y-61255048D01*
X164541017Y-61324897D01*
X164510586Y-61374821D01*
X161702228Y-64183181D01*
X161640905Y-64216666D01*
X161614547Y-64219500D01*
X161389919Y-64219500D01*
X161322880Y-64199815D01*
X161277125Y-64147011D01*
X161267181Y-64077853D01*
X161277537Y-64043095D01*
X161278619Y-64040773D01*
X161323903Y-63943663D01*
X161385063Y-63715408D01*
X161405659Y-63480000D01*
X161385063Y-63244592D01*
X161323903Y-63016337D01*
X161224035Y-62802171D01*
X161088495Y-62608599D01*
X160966567Y-62486671D01*
X160933084Y-62425351D01*
X160938068Y-62355659D01*
X160979939Y-62299725D01*
X161010915Y-62282810D01*
X161142331Y-62233796D01*
X161257546Y-62147546D01*
X161343796Y-62032331D01*
X161394091Y-61897483D01*
X161400500Y-61837873D01*
X161400499Y-60042128D01*
X161394091Y-59982517D01*
X161390905Y-59973976D01*
X161343797Y-59847671D01*
X161343793Y-59847664D01*
X161257547Y-59732455D01*
X161257544Y-59732452D01*
X161142335Y-59646206D01*
X161142328Y-59646202D01*
X161007482Y-59595908D01*
X161007483Y-59595908D01*
X160947883Y-59589501D01*
X160947881Y-59589500D01*
X160947873Y-59589500D01*
X160947864Y-59589500D01*
X159152129Y-59589500D01*
X159152123Y-59589501D01*
X159092516Y-59595908D01*
X158957671Y-59646202D01*
X158957664Y-59646206D01*
X158842455Y-59732452D01*
X158842452Y-59732455D01*
X158756206Y-59847664D01*
X158756202Y-59847671D01*
X158705908Y-59982517D01*
X158700676Y-60031186D01*
X158699501Y-60042123D01*
X158699500Y-60042135D01*
X158699500Y-61837870D01*
X158699501Y-61837876D01*
X158705908Y-61897483D01*
X158756202Y-62032328D01*
X158756206Y-62032335D01*
X158842452Y-62147544D01*
X158842455Y-62147547D01*
X158957664Y-62233793D01*
X158957671Y-62233797D01*
X159089081Y-62282810D01*
X159145015Y-62324681D01*
X159169432Y-62390145D01*
X159154580Y-62458418D01*
X159133430Y-62486673D01*
X159011503Y-62608600D01*
X158875965Y-62802169D01*
X158875964Y-62802171D01*
X158776098Y-63016335D01*
X158776094Y-63016344D01*
X158714938Y-63244586D01*
X158714936Y-63244596D01*
X158694341Y-63479999D01*
X158694341Y-63480000D01*
X158714936Y-63715403D01*
X158714938Y-63715413D01*
X158776094Y-63943655D01*
X158776096Y-63943659D01*
X158776097Y-63943663D01*
X158822463Y-64043095D01*
X158875965Y-64157830D01*
X158875967Y-64157834D01*
X159011507Y-64351404D01*
X159011838Y-64351799D01*
X159011929Y-64352007D01*
X159014610Y-64355836D01*
X159013840Y-64356374D01*
X159039848Y-64415808D01*
X159028805Y-64484800D01*
X159004526Y-64519181D01*
X156286949Y-67236758D01*
X156268973Y-67251631D01*
X156262212Y-67256225D01*
X156262206Y-67256231D01*
X156224238Y-67299296D01*
X156221576Y-67302132D01*
X156209030Y-67314679D01*
X156209029Y-67314680D01*
X156209028Y-67314680D01*
X156198144Y-67328710D01*
X156195667Y-67331705D01*
X156157700Y-67374771D01*
X156157695Y-67374778D01*
X156153985Y-67382060D01*
X156141492Y-67401746D01*
X156136479Y-67408209D01*
X156113673Y-67460907D01*
X156112016Y-67464430D01*
X156085953Y-67515583D01*
X156085950Y-67515591D01*
X156084168Y-67523563D01*
X156076960Y-67545748D01*
X156073711Y-67553255D01*
X156064732Y-67609953D01*
X156064002Y-67613779D01*
X156051476Y-67669816D01*
X156051476Y-67669819D01*
X156051733Y-67677990D01*
X156050269Y-67701268D01*
X156048990Y-67709346D01*
X156048990Y-67709348D01*
X152650500Y-67709348D01*
X152650500Y-56254500D01*
X152670185Y-56187461D01*
X152722989Y-56141706D01*
X152774500Y-56130500D01*
X185045500Y-56130500D01*
X185112539Y-56150185D01*
G37*
%TD.AperFunction*%
%TD*%
M02*
