%TF.GenerationSoftware,KiCad,Pcbnew,7.0.5*%
%TF.CreationDate,2024-03-13T05:49:52+05:30*%
%TF.ProjectId,standalone_arduino,7374616e-6461-46c6-9f6e-655f61726475,rev?*%
%TF.SameCoordinates,Original*%
%TF.FileFunction,Copper,L2,Bot*%
%TF.FilePolarity,Positive*%
%FSLAX46Y46*%
G04 Gerber Fmt 4.6, Leading zero omitted, Abs format (unit mm)*
G04 Created by KiCad (PCBNEW 7.0.5) date 2024-03-13 05:49:52*
%MOMM*%
%LPD*%
G01*
G04 APERTURE LIST*
%TA.AperFunction,ComponentPad*%
%ADD10O,1.700000X1.700000*%
%TD*%
%TA.AperFunction,ComponentPad*%
%ADD11R,1.700000X1.700000*%
%TD*%
%TA.AperFunction,ComponentPad*%
%ADD12C,1.600000*%
%TD*%
%TA.AperFunction,ComponentPad*%
%ADD13R,1.358000X1.358000*%
%TD*%
%TA.AperFunction,ComponentPad*%
%ADD14C,1.358000*%
%TD*%
%TA.AperFunction,ComponentPad*%
%ADD15O,1.600000X1.600000*%
%TD*%
%TA.AperFunction,ComponentPad*%
%ADD16C,1.000000*%
%TD*%
%TA.AperFunction,ComponentPad*%
%ADD17C,2.000000*%
%TD*%
%TA.AperFunction,Conductor*%
%ADD18C,0.250000*%
%TD*%
G04 APERTURE END LIST*
D10*
%TO.P,Program1,5*%
%TO.N,+5V*%
X160050000Y-71100000D03*
%TO.P,Program1,4*%
%TO.N,GND*%
X160050000Y-68560000D03*
%TO.P,Program1,3*%
%TO.N,/RXD*%
X160050000Y-66020000D03*
%TO.P,Program1,2*%
%TO.N,/TXD*%
X160050000Y-63480000D03*
D11*
%TO.P,Program1,1*%
%TO.N,/RST*%
X160050000Y-60940000D03*
%TD*%
D12*
%TO.P,C1,1*%
%TO.N,GND*%
X175970000Y-66040000D03*
%TO.P,C1,2*%
%TO.N,/XTAL1*%
X178470000Y-66040000D03*
%TD*%
D11*
%TO.P,J1,1*%
%TO.N,/RST*%
X160430000Y-76200000D03*
D10*
%TO.P,J1,2*%
%TO.N,/RXD*%
X160430000Y-78740000D03*
%TO.P,J1,3*%
%TO.N,/TXD*%
X160430000Y-81280000D03*
%TO.P,J1,4*%
%TO.N,/D02*%
X160430000Y-83820000D03*
%TO.P,J1,5*%
%TO.N,/D03*%
X160430000Y-86360000D03*
%TO.P,J1,6*%
%TO.N,/D04*%
X160430000Y-88900000D03*
%TO.P,J1,7*%
%TO.N,+5V*%
X160430000Y-91440000D03*
%TO.P,J1,8*%
%TO.N,GND*%
X160430000Y-93980000D03*
%TO.P,J1,9*%
%TO.N,/XTAL1*%
X160430000Y-96520000D03*
%TO.P,J1,10*%
%TO.N,/XTAL2*%
X160430000Y-99060000D03*
%TO.P,J1,11*%
%TO.N,/D05*%
X160430000Y-101600000D03*
%TO.P,J1,12*%
%TO.N,/D06*%
X160430000Y-104140000D03*
%TO.P,J1,13*%
%TO.N,/D07*%
X160430000Y-106680000D03*
%TO.P,J1,14*%
%TO.N,/D08*%
X160430000Y-109220000D03*
%TD*%
D12*
%TO.P,C2,1*%
%TO.N,GND*%
X175970000Y-71120000D03*
%TO.P,C2,2*%
%TO.N,/XTAL2*%
X178470000Y-71120000D03*
%TD*%
D13*
%TO.P,U1,1,PC6/~{RESET}*%
%TO.N,/RST*%
X165510000Y-76200000D03*
D14*
%TO.P,U1,2,PD0*%
%TO.N,/RXD*%
X165510000Y-78740000D03*
%TO.P,U1,3,PD1*%
%TO.N,/TXD*%
X165510000Y-81280000D03*
%TO.P,U1,4,PD2*%
%TO.N,/D02*%
X165510000Y-83820000D03*
%TO.P,U1,5,PD3*%
%TO.N,/D03*%
X165510000Y-86360000D03*
%TO.P,U1,6,PD4*%
%TO.N,/D04*%
X165510000Y-88900000D03*
%TO.P,U1,7,VCC*%
%TO.N,+5V*%
X165510000Y-91440000D03*
%TO.P,U1,8,GND*%
%TO.N,GND*%
X165510000Y-93980000D03*
%TO.P,U1,9,PB6*%
%TO.N,/XTAL1*%
X165510000Y-96520000D03*
%TO.P,U1,10,PB7*%
%TO.N,/XTAL2*%
X165510000Y-99060000D03*
%TO.P,U1,11,PD5*%
%TO.N,/D05*%
X165510000Y-101600000D03*
%TO.P,U1,12,PD6*%
%TO.N,/D06*%
X165510000Y-104140000D03*
%TO.P,U1,13,PD7*%
%TO.N,/D07*%
X165510000Y-106680000D03*
%TO.P,U1,14,PB0*%
%TO.N,/D08*%
X165510000Y-109220000D03*
%TO.P,U1,15,PB1*%
%TO.N,/D09*%
X173430000Y-109220000D03*
%TO.P,U1,16,PB2*%
%TO.N,/D10*%
X173430000Y-106680000D03*
%TO.P,U1,17,PB3*%
%TO.N,/D11*%
X173430000Y-104140000D03*
%TO.P,U1,18,PB4*%
%TO.N,/D12*%
X173430000Y-101600000D03*
%TO.P,U1,19,PB5*%
%TO.N,/D13*%
X173430000Y-99060000D03*
%TO.P,U1,20,AVCC*%
%TO.N,+5V*%
X173430000Y-96520000D03*
%TO.P,U1,21,AREF*%
%TO.N,/AREF*%
X173430000Y-93980000D03*
%TO.P,U1,22,GND*%
%TO.N,GND*%
X173430000Y-91440000D03*
%TO.P,U1,23,PC0*%
%TO.N,/ADC0*%
X173430000Y-88900000D03*
%TO.P,U1,24,PC1*%
%TO.N,/ADC1*%
X173430000Y-86360000D03*
%TO.P,U1,25,PC2*%
%TO.N,/ADC2*%
X173430000Y-83820000D03*
%TO.P,U1,26,PC3*%
%TO.N,/ADC3*%
X173430000Y-81280000D03*
%TO.P,U1,27,PC4*%
%TO.N,/ADC4*%
X173430000Y-78740000D03*
%TO.P,U1,28,PC5*%
%TO.N,/ADC5*%
X173430000Y-76200000D03*
%TD*%
D12*
%TO.P,R1,1*%
%TO.N,+5V*%
X165810000Y-60960000D03*
D15*
%TO.P,R1,2*%
%TO.N,/RST*%
X175970000Y-60960000D03*
%TD*%
D16*
%TO.P,Y1,1,1*%
%TO.N,/XTAL2*%
X179150000Y-60960000D03*
%TO.P,Y1,2,2*%
%TO.N,/XTAL1*%
X181050000Y-60960000D03*
%TD*%
D11*
%TO.P,J2,1*%
%TO.N,/ADC5*%
X178210000Y-76200000D03*
D10*
%TO.P,J2,2*%
%TO.N,/ADC4*%
X178210000Y-78740000D03*
%TO.P,J2,3*%
%TO.N,/ADC3*%
X178210000Y-81280000D03*
%TO.P,J2,4*%
%TO.N,/ADC2*%
X178210000Y-83820000D03*
%TO.P,J2,5*%
%TO.N,/ADC1*%
X178210000Y-86360000D03*
%TO.P,J2,6*%
%TO.N,/ADC0*%
X178210000Y-88900000D03*
%TO.P,J2,7*%
%TO.N,GND*%
X178210000Y-91440000D03*
%TO.P,J2,8*%
%TO.N,/AREF*%
X178210000Y-93980000D03*
%TO.P,J2,9*%
%TO.N,+5V*%
X178210000Y-96520000D03*
%TO.P,J2,10*%
%TO.N,/D13*%
X178210000Y-99060000D03*
%TO.P,J2,11*%
%TO.N,/D12*%
X178210000Y-101600000D03*
%TO.P,J2,12*%
%TO.N,/D11*%
X178210000Y-104140000D03*
%TO.P,J2,13*%
%TO.N,/D10*%
X178210000Y-106680000D03*
%TO.P,J2,14*%
%TO.N,/D09*%
X178210000Y-109220000D03*
%TD*%
D17*
%TO.P,SW1,1*%
%TO.N,/RST*%
X165100000Y-66330000D03*
X171600000Y-66330000D03*
%TO.P,SW1,2*%
%TO.N,GND*%
X165100000Y-70830000D03*
X171600000Y-70830000D03*
%TD*%
D18*
%TO.N,/XTAL2*%
X183590000Y-66000000D02*
X178470000Y-71120000D01*
X183590000Y-58420000D02*
X183590000Y-66000000D01*
X179150000Y-60960000D02*
X181690000Y-58420000D01*
X181690000Y-58420000D02*
X183590000Y-58420000D01*
X178510000Y-71120000D02*
X178470000Y-71120000D01*
X175970000Y-73660000D02*
X178510000Y-71120000D01*
X170890000Y-93680000D02*
X170890000Y-73660000D01*
X165510000Y-99060000D02*
X170890000Y-93680000D01*
X170890000Y-73660000D02*
X175970000Y-73660000D01*
%TO.N,/RXD*%
X158190000Y-67880000D02*
X160050000Y-66020000D01*
X158190000Y-76500000D02*
X158190000Y-67880000D01*
X160430000Y-78740000D02*
X158190000Y-76500000D01*
%TO.N,/TXD*%
X156025000Y-76875000D02*
X160430000Y-81280000D01*
X156025000Y-67505000D02*
X156025000Y-76875000D01*
X160050000Y-63480000D02*
X156025000Y-67505000D01*
%TO.N,/XTAL1*%
X175970000Y-68580000D02*
X175970000Y-68540000D01*
X168350000Y-71120000D02*
X170890000Y-68580000D01*
X175970000Y-68540000D02*
X178470000Y-66040000D01*
X170890000Y-68580000D02*
X175970000Y-68580000D01*
X168350000Y-93680000D02*
X168350000Y-71120000D01*
X165510000Y-96520000D02*
X168350000Y-93680000D01*
X160430000Y-96520000D02*
X165510000Y-96520000D01*
X181050000Y-60960000D02*
X181050000Y-63460000D01*
X181050000Y-63460000D02*
X178470000Y-66040000D01*
%TO.N,/RXD*%
X160430000Y-78740000D02*
X165510000Y-78740000D01*
%TO.N,/RST*%
X160050000Y-61280000D02*
X165100000Y-66330000D01*
X160050000Y-60940000D02*
X160050000Y-61280000D01*
X171600000Y-65330000D02*
X171600000Y-66330000D01*
X175970000Y-60960000D02*
X171600000Y-65330000D01*
X166425000Y-71505000D02*
X171600000Y-66330000D01*
X166425000Y-75285000D02*
X166425000Y-71505000D01*
X165510000Y-76200000D02*
X166425000Y-75285000D01*
X165100000Y-68956167D02*
X165100000Y-66330000D01*
X160430000Y-73626167D02*
X165100000Y-68956167D01*
X160430000Y-76200000D02*
X160430000Y-73626167D01*
%TO.N,/D04*%
X165510000Y-88900000D02*
X160430000Y-88900000D01*
%TO.N,/D03*%
X165510000Y-86360000D02*
X160430000Y-86360000D01*
%TO.N,/D02*%
X165510000Y-83820000D02*
X160430000Y-83820000D01*
%TO.N,/TXD*%
X165510000Y-81280000D02*
X160430000Y-81280000D01*
%TO.N,/RST*%
X165510000Y-76200000D02*
X160430000Y-76200000D01*
%TO.N,/ADC5*%
X178210000Y-76200000D02*
X173430000Y-76200000D01*
%TO.N,/ADC4*%
X178210000Y-78740000D02*
X173430000Y-78740000D01*
%TO.N,/ADC3*%
X173430000Y-81280000D02*
X178210000Y-81280000D01*
%TO.N,/ADC2*%
X173430000Y-83820000D02*
X178210000Y-83820000D01*
%TO.N,/ADC1*%
X173430000Y-86360000D02*
X178210000Y-86360000D01*
%TO.N,/ADC0*%
X173430000Y-88900000D02*
X178210000Y-88900000D01*
%TO.N,/D13*%
X173430000Y-99060000D02*
X178210000Y-99060000D01*
%TO.N,/D11*%
X173430000Y-104140000D02*
X178210000Y-104140000D01*
%TO.N,/D10*%
X173430000Y-106680000D02*
X178210000Y-106680000D01*
%TO.N,/D09*%
X173430000Y-109220000D02*
X178210000Y-109220000D01*
%TO.N,/D08*%
X165510000Y-109220000D02*
X160430000Y-109220000D01*
%TO.N,/D07*%
X165510000Y-106680000D02*
X160430000Y-106680000D01*
%TO.N,/D06*%
X165510000Y-104140000D02*
X160430000Y-104140000D01*
%TO.N,/D05*%
X165510000Y-101600000D02*
X160430000Y-101600000D01*
%TO.N,/XTAL2*%
X165510000Y-99060000D02*
X160430000Y-99060000D01*
%TD*%
M02*
