%TF.GenerationSoftware,KiCad,Pcbnew,7.0.5*%
%TF.CreationDate,2024-03-13T05:49:52+05:30*%
%TF.ProjectId,standalone_arduino,7374616e-6461-46c6-9f6e-655f61726475,rev?*%
%TF.SameCoordinates,Original*%
%TF.FileFunction,Legend,Top*%
%TF.FilePolarity,Positive*%
%FSLAX46Y46*%
G04 Gerber Fmt 4.6, Leading zero omitted, Abs format (unit mm)*
G04 Created by KiCad (PCBNEW 7.0.5) date 2024-03-13 05:49:52*
%MOMM*%
%LPD*%
G01*
G04 APERTURE LIST*
%ADD10C,0.150000*%
%ADD11C,0.120000*%
%ADD12C,0.152400*%
%ADD13C,0.254000*%
G04 APERTURE END LIST*
D10*
%TO.C,Program1*%
X152289047Y-58624819D02*
X152289047Y-57624819D01*
X152289047Y-57624819D02*
X152669999Y-57624819D01*
X152669999Y-57624819D02*
X152765237Y-57672438D01*
X152765237Y-57672438D02*
X152812856Y-57720057D01*
X152812856Y-57720057D02*
X152860475Y-57815295D01*
X152860475Y-57815295D02*
X152860475Y-57958152D01*
X152860475Y-57958152D02*
X152812856Y-58053390D01*
X152812856Y-58053390D02*
X152765237Y-58101009D01*
X152765237Y-58101009D02*
X152669999Y-58148628D01*
X152669999Y-58148628D02*
X152289047Y-58148628D01*
X153289047Y-58624819D02*
X153289047Y-57958152D01*
X153289047Y-58148628D02*
X153336666Y-58053390D01*
X153336666Y-58053390D02*
X153384285Y-58005771D01*
X153384285Y-58005771D02*
X153479523Y-57958152D01*
X153479523Y-57958152D02*
X153574761Y-57958152D01*
X154050952Y-58624819D02*
X153955714Y-58577200D01*
X153955714Y-58577200D02*
X153908095Y-58529580D01*
X153908095Y-58529580D02*
X153860476Y-58434342D01*
X153860476Y-58434342D02*
X153860476Y-58148628D01*
X153860476Y-58148628D02*
X153908095Y-58053390D01*
X153908095Y-58053390D02*
X153955714Y-58005771D01*
X153955714Y-58005771D02*
X154050952Y-57958152D01*
X154050952Y-57958152D02*
X154193809Y-57958152D01*
X154193809Y-57958152D02*
X154289047Y-58005771D01*
X154289047Y-58005771D02*
X154336666Y-58053390D01*
X154336666Y-58053390D02*
X154384285Y-58148628D01*
X154384285Y-58148628D02*
X154384285Y-58434342D01*
X154384285Y-58434342D02*
X154336666Y-58529580D01*
X154336666Y-58529580D02*
X154289047Y-58577200D01*
X154289047Y-58577200D02*
X154193809Y-58624819D01*
X154193809Y-58624819D02*
X154050952Y-58624819D01*
X155241428Y-57958152D02*
X155241428Y-58767676D01*
X155241428Y-58767676D02*
X155193809Y-58862914D01*
X155193809Y-58862914D02*
X155146190Y-58910533D01*
X155146190Y-58910533D02*
X155050952Y-58958152D01*
X155050952Y-58958152D02*
X154908095Y-58958152D01*
X154908095Y-58958152D02*
X154812857Y-58910533D01*
X155241428Y-58577200D02*
X155146190Y-58624819D01*
X155146190Y-58624819D02*
X154955714Y-58624819D01*
X154955714Y-58624819D02*
X154860476Y-58577200D01*
X154860476Y-58577200D02*
X154812857Y-58529580D01*
X154812857Y-58529580D02*
X154765238Y-58434342D01*
X154765238Y-58434342D02*
X154765238Y-58148628D01*
X154765238Y-58148628D02*
X154812857Y-58053390D01*
X154812857Y-58053390D02*
X154860476Y-58005771D01*
X154860476Y-58005771D02*
X154955714Y-57958152D01*
X154955714Y-57958152D02*
X155146190Y-57958152D01*
X155146190Y-57958152D02*
X155241428Y-58005771D01*
X155717619Y-58624819D02*
X155717619Y-57958152D01*
X155717619Y-58148628D02*
X155765238Y-58053390D01*
X155765238Y-58053390D02*
X155812857Y-58005771D01*
X155812857Y-58005771D02*
X155908095Y-57958152D01*
X155908095Y-57958152D02*
X156003333Y-57958152D01*
X156765238Y-58624819D02*
X156765238Y-58101009D01*
X156765238Y-58101009D02*
X156717619Y-58005771D01*
X156717619Y-58005771D02*
X156622381Y-57958152D01*
X156622381Y-57958152D02*
X156431905Y-57958152D01*
X156431905Y-57958152D02*
X156336667Y-58005771D01*
X156765238Y-58577200D02*
X156670000Y-58624819D01*
X156670000Y-58624819D02*
X156431905Y-58624819D01*
X156431905Y-58624819D02*
X156336667Y-58577200D01*
X156336667Y-58577200D02*
X156289048Y-58481961D01*
X156289048Y-58481961D02*
X156289048Y-58386723D01*
X156289048Y-58386723D02*
X156336667Y-58291485D01*
X156336667Y-58291485D02*
X156431905Y-58243866D01*
X156431905Y-58243866D02*
X156670000Y-58243866D01*
X156670000Y-58243866D02*
X156765238Y-58196247D01*
X157241429Y-58624819D02*
X157241429Y-57958152D01*
X157241429Y-58053390D02*
X157289048Y-58005771D01*
X157289048Y-58005771D02*
X157384286Y-57958152D01*
X157384286Y-57958152D02*
X157527143Y-57958152D01*
X157527143Y-57958152D02*
X157622381Y-58005771D01*
X157622381Y-58005771D02*
X157670000Y-58101009D01*
X157670000Y-58101009D02*
X157670000Y-58624819D01*
X157670000Y-58101009D02*
X157717619Y-58005771D01*
X157717619Y-58005771D02*
X157812857Y-57958152D01*
X157812857Y-57958152D02*
X157955714Y-57958152D01*
X157955714Y-57958152D02*
X158050953Y-58005771D01*
X158050953Y-58005771D02*
X158098572Y-58101009D01*
X158098572Y-58101009D02*
X158098572Y-58624819D01*
X159098571Y-58624819D02*
X158527143Y-58624819D01*
X158812857Y-58624819D02*
X158812857Y-57624819D01*
X158812857Y-57624819D02*
X158717619Y-57767676D01*
X158717619Y-57767676D02*
X158622381Y-57862914D01*
X158622381Y-57862914D02*
X158527143Y-57910533D01*
%TO.C,C1*%
X177053333Y-63899580D02*
X177005714Y-63947200D01*
X177005714Y-63947200D02*
X176862857Y-63994819D01*
X176862857Y-63994819D02*
X176767619Y-63994819D01*
X176767619Y-63994819D02*
X176624762Y-63947200D01*
X176624762Y-63947200D02*
X176529524Y-63851961D01*
X176529524Y-63851961D02*
X176481905Y-63756723D01*
X176481905Y-63756723D02*
X176434286Y-63566247D01*
X176434286Y-63566247D02*
X176434286Y-63423390D01*
X176434286Y-63423390D02*
X176481905Y-63232914D01*
X176481905Y-63232914D02*
X176529524Y-63137676D01*
X176529524Y-63137676D02*
X176624762Y-63042438D01*
X176624762Y-63042438D02*
X176767619Y-62994819D01*
X176767619Y-62994819D02*
X176862857Y-62994819D01*
X176862857Y-62994819D02*
X177005714Y-63042438D01*
X177005714Y-63042438D02*
X177053333Y-63090057D01*
X178005714Y-63994819D02*
X177434286Y-63994819D01*
X177720000Y-63994819D02*
X177720000Y-62994819D01*
X177720000Y-62994819D02*
X177624762Y-63137676D01*
X177624762Y-63137676D02*
X177529524Y-63232914D01*
X177529524Y-63232914D02*
X177434286Y-63280533D01*
%TO.C,J1*%
X160096666Y-72884819D02*
X160096666Y-73599104D01*
X160096666Y-73599104D02*
X160049047Y-73741961D01*
X160049047Y-73741961D02*
X159953809Y-73837200D01*
X159953809Y-73837200D02*
X159810952Y-73884819D01*
X159810952Y-73884819D02*
X159715714Y-73884819D01*
X161096666Y-73884819D02*
X160525238Y-73884819D01*
X160810952Y-73884819D02*
X160810952Y-72884819D01*
X160810952Y-72884819D02*
X160715714Y-73027676D01*
X160715714Y-73027676D02*
X160620476Y-73122914D01*
X160620476Y-73122914D02*
X160525238Y-73170533D01*
%TO.C,C2*%
X177053333Y-68979580D02*
X177005714Y-69027200D01*
X177005714Y-69027200D02*
X176862857Y-69074819D01*
X176862857Y-69074819D02*
X176767619Y-69074819D01*
X176767619Y-69074819D02*
X176624762Y-69027200D01*
X176624762Y-69027200D02*
X176529524Y-68931961D01*
X176529524Y-68931961D02*
X176481905Y-68836723D01*
X176481905Y-68836723D02*
X176434286Y-68646247D01*
X176434286Y-68646247D02*
X176434286Y-68503390D01*
X176434286Y-68503390D02*
X176481905Y-68312914D01*
X176481905Y-68312914D02*
X176529524Y-68217676D01*
X176529524Y-68217676D02*
X176624762Y-68122438D01*
X176624762Y-68122438D02*
X176767619Y-68074819D01*
X176767619Y-68074819D02*
X176862857Y-68074819D01*
X176862857Y-68074819D02*
X177005714Y-68122438D01*
X177005714Y-68122438D02*
X177053333Y-68170057D01*
X177434286Y-68170057D02*
X177481905Y-68122438D01*
X177481905Y-68122438D02*
X177577143Y-68074819D01*
X177577143Y-68074819D02*
X177815238Y-68074819D01*
X177815238Y-68074819D02*
X177910476Y-68122438D01*
X177910476Y-68122438D02*
X177958095Y-68170057D01*
X177958095Y-68170057D02*
X178005714Y-68265295D01*
X178005714Y-68265295D02*
X178005714Y-68360533D01*
X178005714Y-68360533D02*
X177958095Y-68503390D01*
X177958095Y-68503390D02*
X177386667Y-69074819D01*
X177386667Y-69074819D02*
X178005714Y-69074819D01*
%TO.C,U1*%
X166840476Y-73623990D02*
X166840476Y-74434018D01*
X166840476Y-74434018D02*
X166888125Y-74529315D01*
X166888125Y-74529315D02*
X166935773Y-74576964D01*
X166935773Y-74576964D02*
X167031071Y-74624612D01*
X167031071Y-74624612D02*
X167221665Y-74624612D01*
X167221665Y-74624612D02*
X167316963Y-74576964D01*
X167316963Y-74576964D02*
X167364611Y-74529315D01*
X167364611Y-74529315D02*
X167412260Y-74434018D01*
X167412260Y-74434018D02*
X167412260Y-73623990D01*
X168412882Y-74624612D02*
X167841098Y-74624612D01*
X168126990Y-74624612D02*
X168126990Y-73623990D01*
X168126990Y-73623990D02*
X168031693Y-73766936D01*
X168031693Y-73766936D02*
X167936396Y-73862234D01*
X167936396Y-73862234D02*
X167841098Y-73909882D01*
%TO.C,R1*%
X170723333Y-59044819D02*
X170390000Y-58568628D01*
X170151905Y-59044819D02*
X170151905Y-58044819D01*
X170151905Y-58044819D02*
X170532857Y-58044819D01*
X170532857Y-58044819D02*
X170628095Y-58092438D01*
X170628095Y-58092438D02*
X170675714Y-58140057D01*
X170675714Y-58140057D02*
X170723333Y-58235295D01*
X170723333Y-58235295D02*
X170723333Y-58378152D01*
X170723333Y-58378152D02*
X170675714Y-58473390D01*
X170675714Y-58473390D02*
X170628095Y-58521009D01*
X170628095Y-58521009D02*
X170532857Y-58568628D01*
X170532857Y-58568628D02*
X170151905Y-58568628D01*
X171675714Y-59044819D02*
X171104286Y-59044819D01*
X171390000Y-59044819D02*
X171390000Y-58044819D01*
X171390000Y-58044819D02*
X171294762Y-58187676D01*
X171294762Y-58187676D02*
X171199524Y-58282914D01*
X171199524Y-58282914D02*
X171104286Y-58330533D01*
%TO.C,Y1*%
X179623809Y-58708628D02*
X179623809Y-59184819D01*
X179290476Y-58184819D02*
X179623809Y-58708628D01*
X179623809Y-58708628D02*
X179957142Y-58184819D01*
X180814285Y-59184819D02*
X180242857Y-59184819D01*
X180528571Y-59184819D02*
X180528571Y-58184819D01*
X180528571Y-58184819D02*
X180433333Y-58327676D01*
X180433333Y-58327676D02*
X180338095Y-58422914D01*
X180338095Y-58422914D02*
X180242857Y-58470533D01*
%TO.C,J2*%
X177876666Y-72884819D02*
X177876666Y-73599104D01*
X177876666Y-73599104D02*
X177829047Y-73741961D01*
X177829047Y-73741961D02*
X177733809Y-73837200D01*
X177733809Y-73837200D02*
X177590952Y-73884819D01*
X177590952Y-73884819D02*
X177495714Y-73884819D01*
X178305238Y-72980057D02*
X178352857Y-72932438D01*
X178352857Y-72932438D02*
X178448095Y-72884819D01*
X178448095Y-72884819D02*
X178686190Y-72884819D01*
X178686190Y-72884819D02*
X178781428Y-72932438D01*
X178781428Y-72932438D02*
X178829047Y-72980057D01*
X178829047Y-72980057D02*
X178876666Y-73075295D01*
X178876666Y-73075295D02*
X178876666Y-73170533D01*
X178876666Y-73170533D02*
X178829047Y-73313390D01*
X178829047Y-73313390D02*
X178257619Y-73884819D01*
X178257619Y-73884819D02*
X178876666Y-73884819D01*
%TO.C,SW1*%
X167016667Y-64737200D02*
X167159524Y-64784819D01*
X167159524Y-64784819D02*
X167397619Y-64784819D01*
X167397619Y-64784819D02*
X167492857Y-64737200D01*
X167492857Y-64737200D02*
X167540476Y-64689580D01*
X167540476Y-64689580D02*
X167588095Y-64594342D01*
X167588095Y-64594342D02*
X167588095Y-64499104D01*
X167588095Y-64499104D02*
X167540476Y-64403866D01*
X167540476Y-64403866D02*
X167492857Y-64356247D01*
X167492857Y-64356247D02*
X167397619Y-64308628D01*
X167397619Y-64308628D02*
X167207143Y-64261009D01*
X167207143Y-64261009D02*
X167111905Y-64213390D01*
X167111905Y-64213390D02*
X167064286Y-64165771D01*
X167064286Y-64165771D02*
X167016667Y-64070533D01*
X167016667Y-64070533D02*
X167016667Y-63975295D01*
X167016667Y-63975295D02*
X167064286Y-63880057D01*
X167064286Y-63880057D02*
X167111905Y-63832438D01*
X167111905Y-63832438D02*
X167207143Y-63784819D01*
X167207143Y-63784819D02*
X167445238Y-63784819D01*
X167445238Y-63784819D02*
X167588095Y-63832438D01*
X167921429Y-63784819D02*
X168159524Y-64784819D01*
X168159524Y-64784819D02*
X168350000Y-64070533D01*
X168350000Y-64070533D02*
X168540476Y-64784819D01*
X168540476Y-64784819D02*
X168778572Y-63784819D01*
X169683333Y-64784819D02*
X169111905Y-64784819D01*
X169397619Y-64784819D02*
X169397619Y-63784819D01*
X169397619Y-63784819D02*
X169302381Y-63927676D01*
X169302381Y-63927676D02*
X169207143Y-64022914D01*
X169207143Y-64022914D02*
X169111905Y-64070533D01*
D11*
%TO.C,Program1*%
X161160000Y-59610000D02*
X161160000Y-60940000D01*
X160050000Y-59610000D02*
X161160000Y-59610000D01*
X158590000Y-71460000D02*
X159000000Y-71460000D01*
X158590000Y-70740000D02*
X159000000Y-70740000D01*
X158590000Y-68920000D02*
X159000000Y-68920000D01*
X158590000Y-68200000D02*
X159000000Y-68200000D01*
X158590000Y-66380000D02*
X159000000Y-66380000D01*
X158590000Y-65660000D02*
X159000000Y-65660000D01*
X158590000Y-63840000D02*
X159000000Y-63840000D01*
X158590000Y-63120000D02*
X159000000Y-63120000D01*
X158590000Y-61300000D02*
X158940000Y-61300000D01*
X158590000Y-60580000D02*
X158940000Y-60580000D01*
X158590000Y-59610000D02*
X158590000Y-72430000D01*
X149960000Y-72430000D02*
X158590000Y-72430000D01*
X149960000Y-69830000D02*
X158590000Y-69830000D01*
X149960000Y-67290000D02*
X158590000Y-67290000D01*
X149960000Y-64750000D02*
X158590000Y-64750000D01*
X149960000Y-62210000D02*
X158590000Y-62210000D01*
X149960000Y-62091900D02*
X158590000Y-62091900D01*
X149960000Y-61973805D02*
X158590000Y-61973805D01*
X149960000Y-61855710D02*
X158590000Y-61855710D01*
X149960000Y-61737615D02*
X158590000Y-61737615D01*
X149960000Y-61619520D02*
X158590000Y-61619520D01*
X149960000Y-61501425D02*
X158590000Y-61501425D01*
X149960000Y-61383330D02*
X158590000Y-61383330D01*
X149960000Y-61265235D02*
X158590000Y-61265235D01*
X149960000Y-61147140D02*
X158590000Y-61147140D01*
X149960000Y-61029045D02*
X158590000Y-61029045D01*
X149960000Y-60910950D02*
X158590000Y-60910950D01*
X149960000Y-60792855D02*
X158590000Y-60792855D01*
X149960000Y-60674760D02*
X158590000Y-60674760D01*
X149960000Y-60556665D02*
X158590000Y-60556665D01*
X149960000Y-60438570D02*
X158590000Y-60438570D01*
X149960000Y-60320475D02*
X158590000Y-60320475D01*
X149960000Y-60202380D02*
X158590000Y-60202380D01*
X149960000Y-60084285D02*
X158590000Y-60084285D01*
X149960000Y-59966190D02*
X158590000Y-59966190D01*
X149960000Y-59848095D02*
X158590000Y-59848095D01*
X149960000Y-59730000D02*
X158590000Y-59730000D01*
X149960000Y-59610000D02*
X158590000Y-59610000D01*
X149960000Y-59610000D02*
X149960000Y-72430000D01*
%TO.C,C1*%
X174600000Y-64670000D02*
X174600000Y-67410000D01*
X174600000Y-64670000D02*
X179840000Y-64670000D01*
X174600000Y-67410000D02*
X179840000Y-67410000D01*
X179840000Y-64670000D02*
X179840000Y-67410000D01*
%TO.C,J1*%
X159100000Y-77470000D02*
X159100000Y-110550000D01*
X159100000Y-77470000D02*
X161760000Y-77470000D01*
X159100000Y-110550000D02*
X161760000Y-110550000D01*
X160430000Y-74870000D02*
X161760000Y-74870000D01*
X161760000Y-74870000D02*
X161760000Y-76200000D01*
X161760000Y-77470000D02*
X161760000Y-110550000D01*
%TO.C,C2*%
X174600000Y-69750000D02*
X174600000Y-72490000D01*
X174600000Y-69750000D02*
X179840000Y-69750000D01*
X174600000Y-72490000D02*
X179840000Y-72490000D01*
X179840000Y-69750000D02*
X179840000Y-72490000D01*
D12*
%TO.C,U1*%
X167090000Y-75310000D02*
X167090000Y-110110000D01*
X171850000Y-75310000D02*
X167090000Y-75310000D01*
X171850000Y-110110000D02*
X167090000Y-110110000D01*
X171850000Y-110110000D02*
X171850000Y-75310000D01*
D13*
X164197000Y-75610000D02*
G75*
G03*
X164197000Y-75610000I-127000J0D01*
G01*
D11*
%TO.C,R1*%
X166850000Y-60960000D02*
X167620000Y-60960000D01*
X167620000Y-59590000D02*
X167620000Y-62330000D01*
X167620000Y-62330000D02*
X174160000Y-62330000D01*
X174160000Y-59590000D02*
X167620000Y-59590000D01*
X174160000Y-62330000D02*
X174160000Y-59590000D01*
X174930000Y-60960000D02*
X174160000Y-60960000D01*
%TO.C,Y1*%
X181049561Y-60178186D02*
G75*
G03*
X179150000Y-60178719I-949561J-781814D01*
G01*
X179150001Y-61741280D02*
G75*
G03*
X181049560Y-61741814I949999J781280D01*
G01*
%TO.C,J2*%
X176880000Y-77470000D02*
X176880000Y-110550000D01*
X176880000Y-77470000D02*
X179540000Y-77470000D01*
X176880000Y-110550000D02*
X179540000Y-110550000D01*
X178210000Y-74870000D02*
X179540000Y-74870000D01*
X179540000Y-74870000D02*
X179540000Y-76200000D01*
X179540000Y-77470000D02*
X179540000Y-110550000D01*
%TO.C,SW1*%
X164850000Y-67830000D02*
X164850000Y-69330000D01*
X166100000Y-71830000D02*
X170600000Y-71830000D01*
X170600000Y-65330000D02*
X166100000Y-65330000D01*
X171850000Y-69330000D02*
X171850000Y-67830000D01*
%TD*%
M02*
