%TF.GenerationSoftware,KiCad,Pcbnew,7.0.5*%
%TF.CreationDate,2024-03-13T05:49:52+05:30*%
%TF.ProjectId,standalone_arduino,7374616e-6461-46c6-9f6e-655f61726475,rev?*%
%TF.SameCoordinates,Original*%
%TF.FileFunction,Soldermask,Bot*%
%TF.FilePolarity,Negative*%
%FSLAX46Y46*%
G04 Gerber Fmt 4.6, Leading zero omitted, Abs format (unit mm)*
G04 Created by KiCad (PCBNEW 7.0.5) date 2024-03-13 05:49:52*
%MOMM*%
%LPD*%
G01*
G04 APERTURE LIST*
G04 Aperture macros list*
%AMRoundRect*
0 Rectangle with rounded corners*
0 $1 Rounding radius*
0 $2 $3 $4 $5 $6 $7 $8 $9 X,Y pos of 4 corners*
0 Add a 4 corners polygon primitive as box body*
4,1,4,$2,$3,$4,$5,$6,$7,$8,$9,$2,$3,0*
0 Add four circle primitives for the rounded corners*
1,1,$1+$1,$2,$3*
1,1,$1+$1,$4,$5*
1,1,$1+$1,$6,$7*
1,1,$1+$1,$8,$9*
0 Add four rect primitives between the rounded corners*
20,1,$1+$1,$2,$3,$4,$5,0*
20,1,$1+$1,$4,$5,$6,$7,0*
20,1,$1+$1,$6,$7,$8,$9,0*
20,1,$1+$1,$8,$9,$2,$3,0*%
G04 Aperture macros list end*
%ADD10O,1.700000X1.700000*%
%ADD11R,1.700000X1.700000*%
%ADD12C,1.600000*%
%ADD13RoundRect,0.102000X-0.679000X-0.679000X0.679000X-0.679000X0.679000X0.679000X-0.679000X0.679000X0*%
%ADD14C,1.562000*%
%ADD15O,1.600000X1.600000*%
%ADD16C,1.000000*%
%ADD17C,2.000000*%
G04 APERTURE END LIST*
D10*
%TO.C,Program1*%
X160050000Y-71100000D03*
X160050000Y-68560000D03*
X160050000Y-66020000D03*
X160050000Y-63480000D03*
D11*
X160050000Y-60940000D03*
%TD*%
D12*
%TO.C,C1*%
X175970000Y-66040000D03*
X178470000Y-66040000D03*
%TD*%
D11*
%TO.C,J1*%
X160430000Y-76200000D03*
D10*
X160430000Y-78740000D03*
X160430000Y-81280000D03*
X160430000Y-83820000D03*
X160430000Y-86360000D03*
X160430000Y-88900000D03*
X160430000Y-91440000D03*
X160430000Y-93980000D03*
X160430000Y-96520000D03*
X160430000Y-99060000D03*
X160430000Y-101600000D03*
X160430000Y-104140000D03*
X160430000Y-106680000D03*
X160430000Y-109220000D03*
%TD*%
D12*
%TO.C,C2*%
X175970000Y-71120000D03*
X178470000Y-71120000D03*
%TD*%
D13*
%TO.C,U1*%
X165510000Y-76200000D03*
D14*
X165510000Y-78740000D03*
X165510000Y-81280000D03*
X165510000Y-83820000D03*
X165510000Y-86360000D03*
X165510000Y-88900000D03*
X165510000Y-91440000D03*
X165510000Y-93980000D03*
X165510000Y-96520000D03*
X165510000Y-99060000D03*
X165510000Y-101600000D03*
X165510000Y-104140000D03*
X165510000Y-106680000D03*
X165510000Y-109220000D03*
X173430000Y-109220000D03*
X173430000Y-106680000D03*
X173430000Y-104140000D03*
X173430000Y-101600000D03*
X173430000Y-99060000D03*
X173430000Y-96520000D03*
X173430000Y-93980000D03*
X173430000Y-91440000D03*
X173430000Y-88900000D03*
X173430000Y-86360000D03*
X173430000Y-83820000D03*
X173430000Y-81280000D03*
X173430000Y-78740000D03*
X173430000Y-76200000D03*
%TD*%
D12*
%TO.C,R1*%
X165810000Y-60960000D03*
D15*
X175970000Y-60960000D03*
%TD*%
D16*
%TO.C,Y1*%
X179150000Y-60960000D03*
X181050000Y-60960000D03*
%TD*%
D11*
%TO.C,J2*%
X178210000Y-76200000D03*
D10*
X178210000Y-78740000D03*
X178210000Y-81280000D03*
X178210000Y-83820000D03*
X178210000Y-86360000D03*
X178210000Y-88900000D03*
X178210000Y-91440000D03*
X178210000Y-93980000D03*
X178210000Y-96520000D03*
X178210000Y-99060000D03*
X178210000Y-101600000D03*
X178210000Y-104140000D03*
X178210000Y-106680000D03*
X178210000Y-109220000D03*
%TD*%
D17*
%TO.C,SW1*%
X165100000Y-66330000D03*
X171600000Y-66330000D03*
X165100000Y-70830000D03*
X171600000Y-70830000D03*
%TD*%
M02*
